<?xml version="1.0" encoding="utf-8"?>
<!-- Generator: Adobe Illustrator 16.0.0, SVG Export Plug-In . SVG Version: 6.00 Build 0)  -->
<!DOCTYPE svg PUBLIC "-//W3C//DTD SVG 1.1//EN" "http://www.w3.org/Graphics/SVG/1.1/DTD/svg11.dtd">
<svg version="1.1" id="Layer_1" xmlns="http://www.w3.org/2000/svg" xmlns:xlink="http://www.w3.org/1999/xlink" x="0px" y="0px"
	 width="800px" height="360.135px" viewBox="0 0 800 360.135" enable-background="new 0 0 800 360.135" xml:space="preserve">
<g>
	<path fill="#333333" d="M33.947,176.217c0-19.879,0-23.446-0.254-27.524c-0.255-4.332-1.274-6.371-5.479-7.263
		c-1.02-0.255-3.186-0.383-4.333-0.383c-0.51,0-1.02-0.255-1.02-0.765c0-0.765,0.637-1.019,2.039-1.02
		c5.734,0,13.762,0.383,14.399,0.383c1.529,0,9.557-0.383,17.203-0.382c12.615,0,35.934-1.147,51.098,14.526
		c6.372,6.626,12.36,17.202,12.36,32.366c0,16.056-6.626,28.416-13.762,35.934c-5.479,5.734-16.948,14.654-38.61,14.654
		c-5.479,0-12.233-0.383-17.712-0.765c-5.607-0.383-9.939-0.765-10.577-0.765c-0.255,0-2.421,0-5.097,0.127
		c-2.548,0-5.479,0.255-7.391,0.255c-1.401,0-2.039-0.255-2.039-1.019c0-0.383,0.255-0.765,1.019-0.765
		c1.147,0,2.676-0.255,3.823-0.51c2.549-0.51,3.186-3.313,3.696-7.009c0.637-5.352,0.637-15.419,0.637-27.651V176.217z
		 M44.651,189.979c0,13.507,0.127,25.23,0.255,27.651c0.127,3.186,0.382,8.283,1.401,9.685c1.657,2.421,6.626,5.097,21.663,5.097
		c11.851,0,22.81-4.332,30.328-11.851c6.626-6.498,10.194-18.731,10.194-30.454c0-16.184-7.008-26.632-12.233-32.111
		C84.28,145.38,69.754,143.596,54.59,143.596c-2.548,0-7.263,0.382-8.283,0.892c-1.146,0.51-1.529,1.147-1.529,2.549
		c-0.127,4.333-0.127,17.33-0.127,27.142V189.979z"/>
	<path fill="#333333" d="M131.805,185.009c0-16.82,0-19.878-0.255-23.318s-0.892-5.479-4.587-5.989
		c-0.892-0.127-2.804-0.255-3.823-0.255c-0.382,0-0.892-0.51-0.892-0.892c0-0.638,0.51-0.893,1.784-0.893
		c5.097,0,11.851,0.255,12.87,0.255c1.02,0,8.028-0.255,11.341-0.255c1.274,0,1.911,0.255,1.911,0.893
		c0,0.382-0.51,0.892-1.02,0.892c-0.765,0-1.401,0-2.803,0.255c-2.931,0.51-3.568,2.421-3.823,5.989
		c-0.255,3.44-0.255,6.498-0.255,23.318v15.164c0,15.673,3.44,22.172,8.283,26.505c5.479,4.969,10.321,5.861,16.693,5.861
		c6.881,0,13.507-3.059,17.33-7.646c5.224-6.244,6.371-15.164,6.371-26.25v-13.635c0-16.82-0.127-19.878-0.255-23.318
		s-0.765-5.479-4.46-5.989c-0.892-0.127-2.803-0.255-3.823-0.255c-0.51,0-0.892-0.51-0.892-0.892c0-0.638,0.51-0.893,1.784-0.893
		c4.97,0,11.468,0.255,12.105,0.255c0.765,0,6.117-0.255,9.43-0.255c1.274,0,1.784,0.255,1.784,0.893
		c0,0.382-0.382,0.892-0.892,0.892c-0.764,0-1.401,0-2.803,0.255c-3.058,0.637-3.695,2.421-3.95,5.989
		c-0.255,3.44-0.127,6.498-0.127,23.318v11.596c0,11.724-1.529,24.849-10.449,32.494c-8.155,7.008-16.82,7.9-23.447,7.9
		c-3.695,0-15.418-0.255-23.319-7.646c-5.479-5.098-9.812-12.615-9.812-28.416V185.009z"/>
	<path fill="#333333" d="M302.552,221.708c0.382,3.822,1.146,9.684,5.734,11.213c3.186,1.02,6.117,1.02,7.263,1.02
		c0.51,0,0.892,0.255,0.892,0.765c0,0.637-1.02,1.02-2.293,1.02c-2.549,0-15.037-0.128-19.114-0.51
		c-2.676-0.255-3.186-0.637-3.186-1.146c0-0.383,0.255-0.765,0.765-0.893c0.637-0.127,0.765-1.784,0.51-3.822l-5.352-55.048h-0.255
		l-27.014,55.303c-2.294,4.715-2.931,5.733-3.95,5.733s-1.657-1.019-3.823-4.969c-2.931-5.353-10.322-19.242-13.125-25.104
		c-3.313-6.881-12.36-25.103-14.271-29.563h-0.51l-4.333,48.932c-0.127,1.656-0.127,3.695-0.127,5.479
		c0,1.656,1.019,2.676,2.676,3.058c1.912,0.51,3.568,0.638,4.333,0.638c0.382,0,0.892,0.382,0.892,0.765
		c0,0.764-0.765,1.019-2.039,1.019c-4.205,0-9.557-0.382-10.449-0.382c-1.02,0-6.372,0.382-9.43,0.382
		c-1.147,0-1.911-0.255-1.911-1.019c0-0.383,0.509-0.765,1.146-0.765c0.892,0,1.657-0.128,3.313-0.383
		c3.695-0.637,3.823-4.587,4.332-8.665l8.155-70.721c0.127-1.147,0.637-1.912,1.274-1.912c0.765,0,1.657,0.383,2.294,1.657
		l33.895,67.28l32.621-67.153c0.51-1.02,1.02-1.784,1.784-1.784s1.401,0.893,1.656,2.932L302.552,221.708z"/>
	<path fill="#333333" d="M357.722,152.133c25.23,0,44.344,15.419,44.344,40.649c0,24.211-17.967,44.217-44.981,44.217
		c-30.71,0-43.835-23.064-43.835-42.561C313.25,176.981,326.758,152.133,357.722,152.133z M360.271,232.539
		c10.066,0,30.327-5.353,30.327-36.699c0-25.994-15.801-39.629-33.513-39.629c-18.732,0-32.239,11.723-32.239,35.297
		C324.846,216.738,340.01,232.539,360.271,232.539z"/>
	<path fill="#333333" d="M452.648,176.217c0-19.879,0-23.446-0.255-27.524c-0.255-4.332-1.274-6.371-5.479-7.263
		c-1.019-0.255-3.186-0.383-4.332-0.383c-0.51,0-1.02-0.255-1.02-0.765c0-0.765,0.638-1.019,2.039-1.02
		c5.734,0,13.38,0.383,14.399,0.383c2.803,0,10.193-0.383,16.056-0.382c15.928,0,21.662,5.352,23.701,7.263
		c2.803,2.676,6.371,8.41,6.371,15.164c0,18.095-13.252,30.327-31.347,30.327c-0.638,0-2.039,0-2.676-0.128
		c-0.638,0-1.402-0.255-1.402-0.892c0-1.02,0.765-1.146,3.44-1.146c12.36,0,22.045-9.048,22.045-20.771
		c0-4.205-0.382-12.743-7.136-19.624s-14.526-6.371-17.457-6.371c-2.167,0-4.333,0.255-5.479,0.765
		c-0.765,0.255-1.02,1.146-1.02,2.421v52.372c0,12.232,0,22.3,0.637,27.651c0.383,3.695,1.147,6.499,4.97,7.009
		c1.784,0.255,4.588,0.51,5.734,0.51c0.765,0,1.02,0.382,1.02,0.765c0,0.637-0.637,1.019-2.039,1.019
		c-7.008,0-15.036-0.382-15.673-0.382c-0.383,0-8.41,0.382-12.233,0.382c-1.401,0-2.039-0.255-2.039-1.019
		c0-0.383,0.255-0.765,1.02-0.765c1.147,0,2.676-0.255,3.823-0.51c2.548-0.51,3.186-3.313,3.695-7.009
		c0.637-5.352,0.637-15.419,0.637-27.651V176.217z"/>
	<path fill="#333333" d="M529.357,204.123c0,10.449,0,18.986,0.51,23.446c0.382,3.186,0.765,5.225,4.077,5.734
		c1.657,0.255,4.078,0.51,5.098,0.51c0.637,0,0.892,0.51,0.892,0.892c0,0.51-0.51,0.892-1.784,0.892
		c-6.243,0-13.507-0.382-14.017-0.382c-0.637,0-7.646,0.382-11.086,0.382c-1.147,0-1.784-0.255-1.784-0.892
		c0-0.382,0.255-0.892,0.892-0.892c1.02,0,2.422-0.255,3.441-0.51c2.166-0.51,2.548-2.549,2.931-5.734
		c0.51-4.46,0.637-12.997,0.637-23.446v-19.114c0-16.82,0-19.878-0.255-23.318c-0.255-3.695-1.146-5.353-3.567-5.862
		c-1.274-0.254-2.677-0.382-3.441-0.382c-0.509,0-0.892-0.51-0.892-0.892c0-0.638,0.51-0.893,1.784-0.893
		c3.695,0,10.704,0.255,11.341,0.255c0.51,0,7.773-0.255,11.214-0.255c1.273,0,1.783,0.255,1.783,0.893
		c0,0.382-0.51,0.892-0.892,0.892c-0.765,0-1.529,0-2.804,0.255c-3.058,0.637-3.695,2.166-3.95,5.989
		c-0.127,3.44-0.127,6.498-0.127,23.318V204.123z"/>
	<path fill="#333333" d="M555.861,185.009c0-16.82,0-19.878-0.255-23.318c-0.255-3.695-0.892-5.479-4.587-5.989
		c-0.893-0.127-2.804-0.255-3.823-0.255c-0.382,0-0.892-0.51-0.892-0.892c0-0.638,0.51-0.893,1.784-0.893
		c5.097,0,12.36,0.255,12.997,0.255c0.765,0,24.211,0.128,26.76,0c2.166-0.127,4.205-0.51,5.097-0.637
		c0.51-0.128,1.02-0.51,1.529-0.51c0.382,0,0.51,0.51,0.51,1.02c0,0.765-0.638,2.038-0.893,5.097
		c-0.127,1.02-0.382,5.861-0.637,7.136c-0.128,0.51-0.51,1.147-1.02,1.147c-0.637,0-0.892-0.51-0.892-1.402
		c0-0.765-0.128-2.548-0.638-3.822c-0.765-1.784-1.911-2.549-8.027-3.313c-1.912-0.255-14.909-0.382-16.184-0.382
		c-0.51,0-0.637,0.382-0.637,1.146v29.436c0,0.765,0,1.146,0.637,1.146c1.402,0,16.184,0,18.731-0.255
		c2.677-0.255,4.333-0.382,5.479-1.528c0.765-0.765,1.274-1.402,1.657-1.402c0.382,0,0.637,0.255,0.637,0.893
		c0,0.637-0.637,2.421-0.892,5.988c-0.255,2.166-0.51,6.244-0.51,7.009c0,0.892-0.255,2.038-1.02,2.038
		c-0.51,0-0.765-0.382-0.765-1.019c0-1.02,0-2.167-0.51-3.568c-0.382-1.529-1.401-2.804-5.734-3.313
		c-3.058-0.382-15.036-0.509-16.947-0.509c-0.638,0-0.765,0.382-0.765,0.764v9.048c0,3.695-0.128,16.311,0,18.477
		c0.255,7.264,2.294,8.665,13.38,8.665c2.931,0,8.282,0,11.213-1.146c2.931-1.274,4.46-3.186,5.098-7.519
		c0.255-1.274,0.51-1.656,1.146-1.656c0.638,0,0.765,0.892,0.765,1.656s-0.892,8.155-1.529,10.449
		c-0.765,2.803-1.911,2.803-6.244,2.803c-8.41,0-14.908-0.255-19.496-0.382c-4.715-0.255-7.646-0.255-9.302-0.255
		c-0.255,0-2.421,0-4.842,0.127c-2.167,0.128-4.715,0.255-6.499,0.255c-1.147,0-1.784-0.255-1.784-0.892
		c0-0.382,0.255-0.892,0.892-0.892c1.02,0,2.422-0.383,3.441-0.51c2.166-0.383,2.421-2.549,2.931-5.734
		c0.637-4.46,0.637-12.997,0.637-23.446V185.009z"/>
	<path fill="#333333" d="M625.942,204.378c0,15.928,0.255,22.427,2.294,24.338c1.783,1.784,6.116,2.549,14.908,2.549
		c5.862,0,10.831-0.128,13.508-3.313c1.401-1.656,2.293-3.95,2.676-6.116c0.127-0.765,0.51-1.401,1.146-1.401
		c0.51,0,0.765,0.51,0.765,1.656s-0.765,7.646-1.656,10.831c-0.765,2.549-1.147,2.931-7.136,2.931
		c-8.028,0-14.272-0.127-19.497-0.382c-5.097-0.128-8.919-0.255-12.232-0.255c-0.51,0-2.421,0-4.587,0.127
		c-2.294,0.128-4.715,0.255-6.499,0.255c-1.147,0-1.784-0.255-1.784-0.892c0-0.382,0.255-0.892,0.892-0.892
		c1.02,0,2.422-0.255,3.441-0.51c2.166-0.51,2.421-2.549,2.931-5.734c0.637-4.46,0.637-12.997,0.637-23.446v-19.114
		c0-16.82,0-19.878-0.255-23.318c-0.255-3.695-0.892-5.479-4.587-5.989c-0.893-0.127-2.804-0.255-3.823-0.255
		c-0.382,0-0.892-0.51-0.892-0.892c0-0.638,0.51-0.893,1.784-0.893c5.097,0,12.105,0.255,12.742,0.255
		c0.51,0,8.92-0.255,12.36-0.255c1.146,0,1.784,0.255,1.784,0.893c0,0.382-0.51,0.765-0.893,0.765c-0.765,0-2.421,0.127-3.695,0.255
		c-3.313,0.637-3.95,2.293-4.205,6.116c-0.127,3.44-0.127,6.498-0.127,23.318V204.378z"/>
	<path fill="#333333" d="M673.596,185.009c0-16.82,0-19.878-0.255-23.318c-0.255-3.695-0.892-5.479-4.587-5.989
		c-0.893-0.127-2.804-0.255-3.823-0.255c-0.382,0-0.892-0.51-0.892-0.892c0-0.638,0.51-0.893,1.784-0.893
		c5.097,0,12.36,0.255,12.997,0.255c0.765,0,24.211,0.128,26.76,0c2.166-0.127,4.205-0.51,5.097-0.637
		c0.51-0.128,1.02-0.51,1.529-0.51c0.382,0,0.51,0.51,0.51,1.02c0,0.765-0.638,2.038-0.893,5.097
		c-0.127,1.02-0.382,5.861-0.637,7.136c-0.128,0.51-0.51,1.147-1.02,1.147c-0.637,0-0.892-0.51-0.892-1.402
		c0-0.765-0.128-2.548-0.638-3.822c-0.765-1.784-1.911-2.549-8.027-3.313c-1.912-0.255-14.909-0.382-16.184-0.382
		c-0.51,0-0.637,0.382-0.637,1.146v29.436c0,0.765,0,1.146,0.637,1.146c1.402,0,16.184,0,18.731-0.255
		c2.677-0.255,4.333-0.382,5.479-1.528c0.765-0.765,1.274-1.402,1.657-1.402c0.382,0,0.637,0.255,0.637,0.893
		c0,0.637-0.637,2.421-0.892,5.988c-0.255,2.166-0.51,6.244-0.51,7.009c0,0.892-0.255,2.038-1.02,2.038
		c-0.51,0-0.765-0.382-0.765-1.019c0-1.02,0-2.167-0.51-3.568c-0.382-1.529-1.401-2.804-5.734-3.313
		c-3.058-0.382-15.036-0.509-16.947-0.509c-0.638,0-0.765,0.382-0.765,0.764v9.048c0,3.695-0.128,16.311,0,18.477
		c0.255,7.264,2.294,8.665,13.38,8.665c2.931,0,8.282,0,11.213-1.146c2.931-1.274,4.46-3.186,5.098-7.519
		c0.255-1.274,0.51-1.656,1.146-1.656c0.638,0,0.765,0.892,0.765,1.656s-0.892,8.155-1.529,10.449
		c-0.765,2.803-1.911,2.803-6.244,2.803c-8.41,0-14.908-0.255-19.496-0.382c-4.715-0.255-7.646-0.255-9.302-0.255
		c-0.255,0-2.421,0-4.842,0.127c-2.167,0.128-4.715,0.255-6.499,0.255c-1.147,0-1.784-0.255-1.784-0.892
		c0-0.382,0.255-0.892,0.892-0.892c1.02,0,2.422-0.383,3.441-0.51c2.166-0.383,2.421-2.549,2.931-5.734
		c0.637-4.46,0.637-12.997,0.637-23.446V185.009z"/>
	<path fill="#333333" d="M724.053,234.068c-1.529-0.765-1.656-1.147-1.656-4.078c0-5.352,0.51-9.685,0.637-11.468
		c0-1.147,0.255-1.784,0.893-1.784c0.637,0,1.02,0.382,1.02,1.274c0,0.892,0,2.421,0.382,3.95
		c1.784,7.9,10.194,10.703,17.712,10.703c11.087,0,16.82-6.243,16.82-14.398c0-7.773-4.205-11.469-14.144-18.859l-5.098-3.823
		c-12.105-9.047-16.056-15.673-16.056-23.191c0-12.742,10.066-20.388,24.849-20.388c4.46,0,8.92,0.637,11.596,1.274
		c2.166,0.51,3.058,0.51,3.95,0.51c0.892,0,1.146,0.127,1.146,0.765c0,0.51-0.51,4.077-0.51,11.468c0,1.657-0.127,2.421-0.892,2.421
		s-0.893-0.51-1.02-1.401c-0.128-1.274-1.02-4.205-1.656-5.352c-0.765-1.274-4.46-5.353-14.527-5.353
		c-8.155,0-14.908,4.078-14.908,11.724c0,6.881,3.44,10.831,14.526,18.35l3.186,2.166c13.635,9.302,18.35,16.82,18.35,26.122
		c0,6.371-2.421,13.252-10.449,18.477c-4.715,3.059-11.724,3.823-17.84,3.823C735.139,236.999,728.641,236.234,724.053,234.068z"/>
</g>
<path fill="#333333" d="M442,63.136c0,0-0.79-3.495-2.84-4.65c-2.037-1.143-12.01-9.627-15.479-18.688
	c-3.461-9.027-7.461-21.401-5.323-22.885c2.158-1.493,24.513,20.222,24.233,22.92c-0.291,2.708,1.878,2.056,1.701-0.065
	c-0.169-2.116-1.136-9.916-0.761-15.287c0.401-5.339,0.222-11.178,0.61-12.819c0.401-1.637,2.491-1.81,4.784,1.023
	c2.33,2.832,8.411,20.918,7.265,25.188c-1.125,4.259-2.583,14.055-1.445,15.022c1.126,0.991,12.679-5.166,18.776,3.333
	c6.1,8.508,7.291,11.875,7.291,11.875s5.614,6.005,5.231,8.523c-0.344,2.491-2.238,2.622-2.238,2.622s0.412,2.907-0.9,4.383
	c-1.258,1.468-12.94,5.706-13.648,5.476c-0.702-0.243-2.422,7.237-2.422,7.237s5.836,4.656,7.968,5.346
	c2.145,0.686,17.428-2.194,19.962-1.606c2.507,0.592,16.043,4.974,16.043,4.974s1.913-0.773-3.328,2.708
	c-5.221,3.474-11.426,3.529-14.073,4.044c-2.64,0.545,10.644,4.164,11.928,4.873c1.289,0.712,2.31,2.82,1.184,3.363
	c-1.136,0.528-12.38,3.989-13.69,3.938c-1.291-0.05-5.844-3.103-9.066-3.926c-3.26-0.802-7.74-1.467-9.595-2.695
	c-1.842-1.206-9.506,0.566-13.838,1.145c-4.354,0.594-16.448-7.916-19.5-7.239c-3.03,0.645-22.763,5.883-28.09,6.121
	c-5.319,0.218-21.423-2.119-35.809-11.739c-8.154-5.934-9.649-5.926-13.179-4.705c-3.528,1.237-13.997,7.315-27.817,7.811
	c-13.836,0.488-14.919-1.819-18.833,1.716c-3.94,3.521-5.73,7.759-8.032,15.411c-2.308,7.627-2.523,11.41-8.529,15.114
	c-6.038,3.703-9.713,0.615-10.15-1.675c-0.443-2.263,4.239-4.711,4.239-4.711s9.682-16.31,9.378-20.376
	c-0.304-4.046-1.012-11.709,3.235-13.383c4.246-1.641,4.246-1.641,4.246-1.641s-2.963-2.871-4.622-2.596
	c-1.65,0.25-5.766,0.127-9.022,3.01c-3.235,2.908-11.939,6.303-17.448,5.048c-5.5-1.255-10.401-7.028-7.063-10.41
	c3.336-3.351,3.082-0.443,3.082-0.443s3.549,3.335,7.703,2.132c4.171-1.195,10.006-3.322,11.287-4.77
	c1.317-1.475,4.354-5.837,6.993-6.382c2.631-0.517,14.163,4.435,18.037,3.75c3.902-0.693,7.561-2.837,7.673-5.466
	c0.074-2.653-4.488-24.463,6.865-30.582c-0.338-4.934-3.291-15.192,19.008-19.015c0.59,7.26-2.732,10.612-4.238,12.144
	c-1.481,1.525,18.568-2.798,28.422-0.551c25.759,5.885,31.643,19.675,46.725,22.756C436.769,70.268,441.397,65.479,442,63.136z"/>
<g>
	<path fill="#333333" d="M181.167,317.603v-0.346c0-0.23,0.23-0.727,0.691-1.487c0.46-0.761,0.991-1.257,1.59-1.487
		c0.046,0,0.069-0.022,0.069-0.069l-0.069-0.554c0.092-0.092,0.322-0.392,0.691-0.898c0.368-0.508,0.726-0.727,1.072-0.657
		c0.253-0.369,0.576-0.675,0.968-0.917c0.391-0.242,0.749-0.559,1.071-0.951l1.278-0.796c0.898-0.6,1.555-0.899,1.97-0.899h0.519
		c0.276-0.461,0.645-0.691,1.105-0.691c0.438,0,0.726,0.069,0.864,0.207c0.046,0.047,0.092,0.069,0.138,0.069
		c0.023,0,0.161-0.092,0.415-0.276c0.253-0.185,0.564-0.276,0.934-0.276c0.092,0,0.61,0.185,1.555,0.553
		c0.277-0.276,0.542-0.415,0.795-0.415c0.092,0,0.253,0.069,0.483,0.208c0.23,0.138,0.466,0.259,0.708,0.363
		c0.242,0.104,0.479,0.53,0.708,1.279c0.23,0.75,0.346,1.171,0.346,1.263c0,0.369-0.306,0.802-0.915,1.297
		c-0.61,0.496-1.179,0.744-1.708,0.744c-0.184,0-0.415-0.161-0.69-0.484c-0.691-0.139-1.277-0.312-1.76-0.519
		c-0.645,0.138-1.14,0.311-1.484,0.519h-0.068l-0.311-0.276l-0.276-0.069h-0.069c-0.069,0.092-0.161,0.254-0.276,0.484
		c-0.368,0.254-0.684,0.421-0.949,0.501c-0.265,0.081-0.478,0.208-0.639,0.381c-0.161,0.173-0.432,0.352-0.811,0.536
		c-0.38,0.185-0.662,0.438-0.846,0.761c-0.46,0.254-0.794,0.403-1.001,0.449h-0.207c-0.184,0.369-0.61,0.98-1.277,1.834
		l-0.897,1.487c-0.208,0.185-0.461,0.397-0.761,0.64c-0.3,0.242-0.45,0.456-0.45,0.64c0,0.047,0.022,0.162,0.069,0.346v0.347
		c0,0.138-0.109,0.306-0.329,0.501c-0.219,0.196-0.329,0.341-0.329,0.433l0.069,0.761l-0.277,1.211c0,0.715,0.519,1.072,1.557,1.072
		h0.519l1.485-0.242c0.483-0.069,0.887-0.139,1.209-0.208c0.322-0.068,0.507-0.104,0.553-0.104s0.23-0.126,0.553-0.38h0.346
		l0.311-0.069c0.092-0.484,0.749-0.888,1.969-1.211c0.276-0.415,0.743-0.721,1.399-0.917c0.656-0.195,1.319-0.616,1.987-1.262h0.518
		c0.069,0,0.282-0.133,0.64-0.398c0.356-0.265,0.725-0.479,1.105-0.64c0.38-0.161,0.616-0.3,0.708-0.415
		c0.092-0.115,0.265-0.219,0.519-0.312c0.415-0.646,0.91-1.049,1.486-1.21l0.138-0.139c0.369-0.323,0.599-0.484,0.691-0.484
		l0.415,0.069c0.23,0,0.374-0.144,0.432-0.433c0.057-0.288,0.426-0.68,1.106-1.176c0.679-0.496,1.111-0.744,1.295-0.744
		c0.438,0,0.657,0.231,0.657,0.692c0,0.346-0.196,0.542-0.588,0.588c0.253,0.6,0.38,0.934,0.38,1.003
		c0,0.761-0.38,1.257-1.141,1.487c-0.092,0.047-0.138,0.115-0.138,0.208l-0.069,0.622c0.022,0,0.022,0.018,0,0.052
		c-0.023,0.035-0.069,0.087-0.138,0.156l-0.519,0.068l-0.138,0.208c-0.508,0.276-1.096,0.75-1.764,1.418l-0.691,0.727h-0.104
		c-0.231-0.23-0.415-0.346-0.554-0.346c-0.092,0-0.208,0.161-0.346,0.484c-0.784,0.784-1.349,1.233-1.694,1.349
		c-0.139,0.047-0.38,0.23-0.727,0.554l-0.692,0.449h-0.519c-0.069,0.069-0.133,0.168-0.19,0.294
		c-0.058,0.127-0.259,0.317-0.605,0.571c-0.346,0.254-0.594,0.479-0.743,0.674c-0.15,0.196-0.363,0.341-0.64,0.433l-0.623-0.139
		c-0.208,0.369-0.588,0.554-1.141,0.554c-0.138,0.093-0.34,0.271-0.605,0.536c-0.266,0.266-0.444,0.397-0.536,0.397
		c-0.093,0-0.334-0.138-0.727-0.415h-0.069c-0.23,0-0.346,0.173-0.346,0.52c0,0.346-0.213,0.53-0.64,0.553
		c-0.427,0.023-0.824,0.139-1.193,0.347h-0.069c-0.531,0-0.911-0.099-1.142-0.294c-0.23-0.196-0.438-0.341-0.622-0.433
		c-0.715,0.23-1.095,0.346-1.141,0.346c-0.277,0-0.542-0.115-0.796-0.346l-1.487-0.761c-0.092-0.069-0.254-0.381-0.484-0.935
		l-0.208-0.276c-0.738-0.139-1.234-0.899-1.487-2.283l-0.277-0.83c-0.046-0.046-0.069-0.149-0.069-0.312
		c0-0.229,0.092-0.582,0.277-1.055c0.184-0.473,0.369-1.106,0.553-1.902S180.59,317.811,181.167,317.603z"/>
	<path fill="#333333" d="M228.358,318.675l0.552-0.484c0.345,0,0.551-0.155,0.62-0.467c0.069-0.312,0.316-0.559,0.742-0.743
		s0.822-0.56,1.19-1.124c0.368-0.565,0.747-0.848,1.138-0.848c0.138,0,0.299,0.115,0.483,0.346c0.184,0.23,0.276,0.415,0.276,0.554
		c0,0.761-0.23,1.545-0.692,2.352l-0.138,0.969l-0.242,0.449c-0.346,0.186-0.571,0.381-0.674,0.589
		c-0.104,0.207-0.375,0.461-0.813,0.761l-0.346,0.484c-0.507,0.161-0.848,0.427-1.021,0.795c-0.173,0.369-0.415,0.577-0.726,0.623
		c-0.312,0.046-0.651,0.276-1.02,0.691c-0.231,0.116-0.507,0.22-0.83,0.312l-0.069,0.346c-0.23,0.23-0.594,0.415-1.089,0.554
		s-0.864,0.271-1.106,0.397c-0.242,0.127-0.409,0.19-0.501,0.19c-0.438,0-0.842-0.087-1.21-0.26s-0.749-0.282-1.141-0.328
		c-0.138-0.139-0.219-0.288-0.242-0.45c-0.023-0.16-0.138-0.374-0.346-0.64c-0.208-0.265-0.311-0.628-0.311-1.09l0.139-0.657
		c0-0.092-0.058-0.207-0.173-0.346c-0.116-0.138-0.173-0.253-0.173-0.346c0-0.092,0.023-0.161,0.069-0.207
		c0.046-0.046,0.069-0.115,0.069-0.208c0-0.115-0.023-0.242-0.069-0.381c-0.046-0.138-0.069-0.253-0.069-0.346l0.208-1.694
		c0-0.139-0.046-0.208-0.138-0.208c-0.092,0-0.259,0.116-0.501,0.346c-0.242,0.231-0.525,0.347-0.848,0.347
		c-0.185,0.138-0.334,0.427-0.45,0.864c-0.185,0.23-0.415,0.438-0.692,0.623l-0.138,0.207c-0.046,0.162-0.219,0.294-0.519,0.397
		c-0.3,0.104-0.508,0.237-0.623,0.398l-0.346,0.346l-0.657-0.069c-0.046,0.047-0.173,0.248-0.381,0.605s-0.473,0.651-0.796,0.882
		l-2.629,2.145c-0.277,0.185-0.681,0.415-1.211,0.692l-0.208,0.207c-1.845,1.223-3.148,1.833-3.909,1.833
		c-0.623,0-1.349-0.173-2.18-0.519c-0.83-0.346-1.28-0.761-1.349-1.245l-0.346-1.418c-0.208-0.323-0.311-0.772-0.311-1.35
		c0-0.276,0.022-0.461,0.069-0.553v-0.208l-0.069-1.142c0-0.276,0.219-0.415,0.657-0.415l-0.069-0.934
		c0-0.092,0.202-0.455,0.605-1.09c0.403-0.634,0.674-0.997,0.813-1.089l0.346-0.45c-0.023-0.276,0.138-0.57,0.485-0.882
		c0.346-0.312,0.623-0.628,0.831-0.951c0.208-0.323,0.601-0.68,1.178-1.072l1.039-1.038c0.808-0.807,1.685-1.452,2.632-1.937
		c0.138-0.046,0.421-0.277,0.848-0.692c0.427-0.415,0.913-0.72,1.455-0.916s1.073-0.444,1.593-0.744
		c0.52-0.299,0.93-0.449,1.23-0.449h0.277c0.092,0,0.704-0.288,1.835-0.865h0.208c0.092,0,0.311,0.093,0.658,0.277h0.069
		l0.555-0.277c0.092-0.046,0.208-0.069,0.346-0.069c1.431,0,2.216,0.992,2.355,2.976c0.046,0.415,0.162,0.622,0.347,0.622
		c0.23,0,0.559-0.42,0.986-1.263c0.427-0.841,1.333-1.263,2.717-1.263c0.991,0,1.487,0.635,1.487,1.903
		c0,1.499-0.669,2.917-2.006,4.254c-0.092,0.185-0.162,0.393-0.208,0.623l-0.484,1.418v0.069c0,0.138-0.099,0.328-0.294,0.57
		s-0.294,0.456-0.294,0.64l0.069,0.865l-0.138,0.969c0,0.438,0.081,0.726,0.241,0.864c0.736-0.185,1.27-0.489,1.604-0.917
		c0.333-0.426,0.569-0.662,0.707-0.709l0.345-0.138C227.84,319.194,228.082,318.906,228.358,318.675z M216.872,318.675
		c0.092-0.507,0.375-0.894,0.848-1.158s0.755-0.536,0.848-0.813c0.438-0.322,1.066-0.899,1.885-1.729
		c0.818-0.83,1.228-1.337,1.228-1.521c0-0.069-0.046-0.104-0.138-0.104h-0.069l-0.276,0.173l-0.623-0.069l-0.658,0.069l-0.484-0.242
		l-0.45,0.069l-0.692-0.139c-0.369,0-0.687,0.075-0.951,0.225c-0.265,0.15-0.773,0.317-1.522,0.502s-1.424,0.501-2.024,0.951
		c-0.6,0.449-1.038,0.674-1.314,0.674c-0.162,0.347-0.704,0.843-1.625,1.488c-0.554,0.185-0.912,0.588-1.073,1.21
		c-0.6,0.484-0.899,0.761-0.899,0.83l-0.242,0.588c-0.185,0.162-0.415,0.294-0.692,0.398c-0.277,0.104-0.438,0.346-0.484,0.727
		c-0.046,0.38-0.202,0.726-0.467,1.037c-0.266,0.312-0.398,0.56-0.398,0.744c0,1.13,0.219,1.694,0.657,1.694
		c0.185,0,0.571-0.121,1.159-0.363c0.588-0.242,0.928-0.409,1.021-0.501c0.092-0.092,0.277-0.185,0.553-0.277l0.658-0.346
		c0.092-0.092,0.196-0.149,0.312-0.173c0.115-0.022,0.23-0.098,0.346-0.225s0.323-0.265,0.623-0.415
		c0.299-0.15,0.53-0.352,0.691-0.605c0.392-0.23,1.026-0.588,1.903-1.072l0.726-0.554c0.507-0.23,0.818-0.426,0.934-0.588
		C216.295,318.998,216.526,318.837,216.872,318.675z"/>
	<path fill="#333333" d="M235.79,319.401v-0.242c0-0.322,0.023-0.576,0.069-0.761c-0.138-0.369-0.208-0.703-0.208-1.003
		c0-0.046,0.115-0.369,0.346-0.969l0.312-1.072c0.161-0.415,0.253-0.634,0.277-0.657c-0.139-0.368-0.208-0.576-0.208-0.623
		c0-0.529,0.149-0.968,0.449-1.313c0.299-0.347,0.553-0.831,0.761-1.453l0.691-2.11l1.14-2.767c0.023-0.069,0.132-0.254,0.328-0.554
		s0.357-0.559,0.484-0.778c0.126-0.219,0.305-0.536,0.536-0.951l0.346-0.069c0.092-0.092,0.138-0.184,0.138-0.276
		c0-0.046-0.046-0.23-0.138-0.554l1.21-2.006l0.727-1.487c0.23-0.392,0.484-0.646,0.761-0.761c0.461-0.854,0.865-1.372,1.21-1.557
		c0.138-0.438,0.392-0.911,0.761-1.418l0.657-0.069c0.115-0.323,0.23-0.565,0.346-0.727l0.069-0.692c0,0.139,0.058,0.099,0.173-0.12
		c0.115-0.22,0.288-0.629,0.519-1.229l0.934-1.072l0.276-0.484c0.115-0.161,0.3-0.472,0.554-0.934
		c0.346-0.139,0.634-0.392,0.865-0.761l0.726-0.588c-0.046-0.254,0.23-0.818,0.831-1.695c0.392-0.161,0.749-0.368,1.072-0.623
		l0.484-0.138c0-0.807,0.288-1.36,0.865-1.66l0.415-0.277c0.369-0.184,0.576-0.276,0.623-0.276l0.242-0.069
		c0.277-0.092,0.6-0.139,0.969-0.139c0.853,0,1.625,0.317,2.317,0.951c0.692,0.635,1.038,1.355,1.038,2.162
		c0,0.323-0.173,0.657-0.519,1.003l-0.139,0.277c-0.323,1.269-0.553,1.902-0.691,1.902c-0.093,0-0.22,0.069-0.381,0.207
		c-0.046,0.761-0.092,1.188-0.138,1.28c-0.415,0.069-0.623,0.588-0.623,1.557c-0.046,0.138-0.213,0.375-0.501,0.709
		c-0.289,0.334-0.514,0.795-0.675,1.384c-0.162,0.588-0.334,0.882-0.519,0.882h-0.38l0.104,0.519c0,0.323-0.156,0.64-0.467,0.951
		c-0.312,0.312-0.501,0.64-0.571,0.986c-0.069,0.346-0.346,0.761-0.83,1.245l-0.346,0.553c-0.138,0.231-0.323,0.474-0.553,0.727
		c-0.231,0.254-0.427,0.646-0.588,1.176l-0.899,1.661c-0.623,1.13-1.096,1.672-1.418,1.625c-0.208,0.899-0.346,1.418-0.415,1.557
		c-0.069,0.139-0.23,0.266-0.484,0.381c-0.254,0.115-0.45,0.317-0.588,0.605c-0.138,0.288-0.289,0.501-0.45,0.64l-0.623,1.279
		c-0.369,0.162-0.634,0.462-0.795,0.899c-0.369,0.093-0.6,0.404-0.692,0.935c-0.092,0.092-0.208,0.3-0.346,0.622l-1.21,1.211
		c-0.623,0.438-0.958,0.939-1.003,1.505c-0.046,0.564-0.346,0.847-0.899,0.847c-0.392,0-0.968-0.173-1.729-0.519h-0.069
		c-0.069,0.323-0.231,0.681-0.484,1.072l0.138,0.934c0,0.116-0.185,0.843-0.553,2.18c0.184,0.346,0.277,0.588,0.277,0.727
		l-0.069,0.761l0.173,0.934c0.115,0.761,0.392,1.142,0.83,1.142l0.83,0.139c0.046,0,0.334-0.173,0.864-0.52l1.279-0.691
		c0.046,0,0.069,0.023,0.069,0.069c0.23,0.092,0.415,0.139,0.553,0.139c0.23,0,0.346-0.185,0.346-0.554v-0.45
		c0.139-0.229,0.306-0.368,0.501-0.415c0.195-0.046,0.375-0.149,0.536-0.311c0.161-0.161,0.288-0.242,0.38-0.242h0.346
		c0.345,0,0.518-0.403,0.518-1.211c0.092-0.046,0.208-0.139,0.346-0.276h0.415c0.184,0,0.386-0.226,0.604-0.675
		c0.219-0.45,0.375-0.721,0.467-0.813c0.415-0.047,0.703-0.115,0.864-0.208c0.737-1.337,1.302-2.006,1.693-2.006h0.208
		c0.391-0.369,0.604-0.697,0.639-0.986c0.035-0.288,0.15-0.479,0.345-0.57c0.196-0.092,0.375-0.208,0.536-0.346
		c0.161-0.139,0.265-0.208,0.312-0.208c0.345,0,0.518,0.127,0.518,0.381l-0.104,0.968l0.242,1.038c0,0.093-0.099,0.271-0.294,0.536
		c-0.195,0.266-0.293,0.56-0.293,0.882c0,0.669-0.115,1.026-0.346,1.072c-0.23,0.047-0.42,0.202-0.57,0.467
		c-0.15,0.266-0.397,0.508-0.744,0.727c-0.346,0.22-0.61,0.536-0.794,0.951l-0.588,0.139l-0.345,0.207
		c-0.277,0.716-0.571,1.153-0.882,1.314c-0.311,0.162-0.697,0.646-1.158,1.453c-0.069,0-0.104,0.023-0.104,0.069l-0.553-0.069
		c-0.208,0.369-0.416,0.588-0.623,0.657s-0.38,0.202-0.518,0.397c-0.138,0.196-0.386,0.363-0.743,0.502s-0.582,0.3-0.674,0.484
		c-0.092,0.185-0.231,0.288-0.415,0.312c-0.185,0.022-0.357,0.109-0.519,0.259c-0.161,0.15-0.299,0.225-0.415,0.225
		c-0.046,0-0.208-0.022-0.484-0.068h-0.138c-0.392,0.276-0.715,0.415-0.968,0.415c-0.3,0-0.519,0.046-0.657,0.138
		c-0.138-0.092-0.352-0.161-0.64-0.207s-0.617-0.161-0.985-0.346c-0.392,0.092-0.634,0.138-0.726,0.138
		c-0.392,0-0.887-0.386-1.486-1.158s-0.898-1.527-0.898-2.266c0-0.023-0.133-0.202-0.398-0.536c-0.265-0.334-0.398-0.697-0.398-1.09
		v-0.346l0.069-0.415v-0.657l0.069-0.208c0.346-0.046,0.519-0.092,0.519-0.138L235.79,319.401z M242.809,310.235l0.727-0.415
		c0.092-0.369,0.392-0.813,0.899-1.332c0.507-0.519,0.865-0.778,1.072-0.778h0.276c0-0.161,0.035-0.322,0.104-0.484
		c0.069-0.161,0.104-0.38,0.104-0.657c0-0.138,0.312-0.519,0.934-1.141l0.277-0.623c0.208-0.6,0.726-1.095,1.556-1.487
		c0.323-0.669,0.565-1.003,0.727-1.003l0.277-0.069c0.092-0.346,0.277-0.657,0.553-0.934l0.139-0.208v-0.554
		c0-0.046,0.155-0.235,0.467-0.57c0.311-0.334,0.536-0.646,0.674-0.934c0.139-0.288,0.329-0.513,0.571-0.675
		c0.242-0.161,0.409-0.449,0.501-0.864l0.554-0.069c0-0.3,0.022-0.496,0.069-0.588l0.069-0.347c0.115-0.276,0.519-1.003,1.21-2.179
		l0.554-1.28c0-0.138,0.098-0.305,0.294-0.501c0.196-0.195,0.294-0.479,0.294-0.848l0.277-1.142c0-0.53-0.092-0.795-0.277-0.795
		c-0.231,0.161-0.444,0.276-0.64,0.346c-0.196,0.069-0.387,0.484-0.571,1.245c-0.692,0.161-1.09,0.49-1.193,0.985
		c-0.104,0.496-0.387,0.917-0.848,1.263l-0.242,0.415c-0.046,0.254-0.265,0.519-0.657,0.796c-0.392,0.276-0.761,0.749-1.106,1.418
		c-1.153,1.591-1.788,2.444-1.903,2.56l-0.346,0.415l-0.519-0.069c0.092,0.369,0.139,0.577,0.139,0.623
		c0,0.138-0.069,0.271-0.208,0.397c-0.139,0.127-0.242,0.283-0.312,0.467c-0.069,0.186-0.208,0.398-0.415,0.641
		c-0.208,0.241-0.397,0.634-0.571,1.176c-0.173,0.542-0.329,0.859-0.467,0.951l-0.484-0.069c-0.3,0.185-0.45,0.369-0.45,0.554
		l0.104,0.484c0,0.092-0.064,0.202-0.19,0.328c-0.127,0.127-0.248,0.375-0.363,0.744s-0.403,0.928-0.865,1.677
		c-0.461,0.75-0.825,1.546-1.089,2.387c-0.265,0.843-0.525,1.379-0.778,1.608c0.046,0.047,0.115,0.069,0.208,0.069
		C242.244,311.169,242.532,310.857,242.809,310.235z"/>
	<path fill="#333333" d="M251.033,315.631l0.554-0.484h0.208c0.161,0,0.404-0.173,0.727-0.519l0.347-0.139
		c0.461-0.691,0.865-1.095,1.211-1.21l0.555-0.415c0.092-0.092,0.225-0.173,0.397-0.242c0.173-0.069,0.45-0.294,0.832-0.675
		c0.38-0.38,0.686-0.57,0.917-0.57c0.231,0,0.416,0.023,0.554,0.069c0.138-0.277,0.415-0.548,0.831-0.813
		c0.416-0.265,0.75-0.582,1.005-0.951l0.45-0.207c0.369-0.185,0.698-0.421,0.986-0.709s0.664-0.433,1.125-0.433
		c0.669,0,1.368,0.34,2.094,1.021c0.727,0.68,1.09,1.331,1.09,1.954l-0.588,2.698c-0.392,1.983-0.83,3.021-1.314,3.112l-0.138,0.727
		c-0.323,0.23-0.484,0.415-0.484,0.554l0.208,0.83c0,0.115-0.127,0.288-0.38,0.519c-0.046,0-0.069,0.069-0.069,0.208v1.418
		c0,0.254-0.161,0.462-0.484,0.622c0.046,0.047,0.115,0.093,0.208,0.139c0.138-0.139,0.45-0.207,0.934-0.207l0.553,0.068l0.76-0.761
		c0.161-0.046,0.385-0.155,0.673-0.328c0.288-0.173,0.777-0.398,1.468-0.675l4.525-3.459c0.622-0.622,1.093-0.934,1.416-0.934
		c0.345,0,0.519,0.22,0.519,0.657c0,0.507-0.099,0.929-0.294,1.263s-0.375,0.738-0.536,1.21c-0.161,0.474-0.352,0.802-0.57,0.986
		c-0.219,0.185-0.397,0.386-0.536,0.605c-0.139,0.219-0.514,0.536-1.125,0.951s-1.13,0.836-1.556,1.262
		c-0.427,0.428-0.778,0.732-1.055,0.917l-1.487,1.072l-0.208,0.346c-0.046,0.047-0.259,0.145-0.64,0.294
		c-0.38,0.15-0.721,0.341-1.021,0.571l-0.622,0.346c-0.138,0.093-0.363,0.15-0.674,0.173c-0.312,0.023-0.583,0.155-0.813,0.397
		c-0.231,0.242-0.415,0.363-0.553,0.363l-0.519-0.069l-0.691,0.208c-0.392,0-0.871-0.236-1.436-0.709s-0.847-0.974-0.847-1.505
		v-0.207l0.069-0.484c0-0.092-0.069-0.329-0.208-0.709c-0.139-0.381-0.208-0.594-0.208-0.641l0.069-0.484l-0.069-0.207
		c0-0.623,0.046-1.015,0.139-1.176c0.092-0.161,0.161-0.386,0.208-0.675c0.046-0.288,0.092-0.524,0.138-0.709l0.173-0.865
		c0.092-0.276,0.208-0.461,0.346-0.553c0.046-0.185,0.138-0.496,0.277-0.935l0.138-0.622l0.346-0.484
		c0.185-0.185,0.294-0.433,0.329-0.744c0.035-0.311,0.156-0.64,0.363-0.985s0.312-0.554,0.312-0.623
		c0-0.276-0.139-0.415-0.415-0.415c-0.093,0-0.381,0.186-0.865,0.554l-0.624-0.207c-0.046,0-0.173,0.115-0.38,0.346
		c0,0.092-0.104,0.161-0.311,0.207c-0.208,0.047-0.404,0.22-0.588,0.52l-0.277,0.068l-0.45-0.207h-0.139
		c-0.23,0-0.369,0.254-0.415,0.761c-0.254,0.369-0.588,0.611-1.003,0.727l-0.761,0.207c-0.254,0.093-0.438,0.301-0.554,0.623
		c-0.116,0.323-0.346,0.617-0.692,0.882c-0.346,0.266-0.577,0.398-0.692,0.398c-0.646,0-0.969-0.357-0.969-1.072l0.277-1.626
		L251.033,315.631z M265.976,298.337l-0.208-1.35v-0.207c0-1.084,0.369-1.684,1.107-1.799c0.161-0.022,0.645-0.173,1.453-0.45
		c0.415,0.093,0.848,0.456,1.297,1.09c0.449,0.635,0.674,1.193,0.674,1.678c0,0.047-0.035,0.15-0.104,0.312
		c-0.069,0.161-0.116,0.467-0.138,0.916c-0.023,0.45-0.248,0.843-0.674,1.177c-0.427,0.334-0.882,0.501-1.366,0.501
		c-0.323,0-0.732-0.225-1.228-0.674C266.292,299.08,266.021,298.683,265.976,298.337z"/>
	<path fill="#333333" d="M273.937,324.278l-0.276-1.764c0-0.139,0.069-0.357,0.208-0.657c0.138,0,0.253-0.046,0.346-0.139
		l-0.208-0.622c0-0.808,0.225-1.505,0.675-2.093s0.698-0.986,0.745-1.193c0.046-0.208,0.375-0.882,0.986-2.023
		s1.067-1.873,1.368-2.196l0.208-0.45l0.277-0.069c0.531-0.853,1.281-1.625,2.251-2.317c0.323-0.507,0.715-0.922,1.177-1.245
		c0.461-0.322,0.773-0.554,0.935-0.691c0.162-0.139,0.404-0.23,0.727-0.277l0.139-0.068c0.669-0.669,1.246-1.004,1.731-1.004
		c0.161-0.161,0.484-0.346,0.969-0.553h0.381c0.139,0,0.277-0.046,0.416-0.139c0.139-0.092,0.277-0.139,0.416-0.139
		c0.092,0,0.335,0.093,0.727,0.277c0.369-0.369,0.669-0.554,0.9-0.554c0.484,0,0.975,0.185,1.471,0.554s0.814,0.818,0.952,1.349
		c0.139,0.53,0.254,0.842,0.347,0.934c0.092,0.093,0.185,0.208,0.277,0.347c0.184,0,0.426-0.427,0.727-1.28l0.416-0.554
		c0.626-0.807,1.055-1.752,1.288-2.836c0.046-0.046,0.116-0.236,0.208-0.571c0.093-0.334,0.337-0.904,0.731-1.712
		c0.673-0.969,1.148-1.96,1.427-2.975l0.418-0.622c0.278-0.185,0.429-0.387,0.452-0.605c0.023-0.219,0.093-0.421,0.208-0.605
		s0.248-0.409,0.398-0.675c0.15-0.265,0.271-0.443,0.363-0.536c0.092-0.092,0.23-0.409,0.415-0.951
		c0.184-0.541,0.409-0.848,0.674-0.916c0.265-0.069,0.536-0.196,0.813-0.381l0.069-0.242l-0.139-0.484
		c0-0.276,0.306-0.761,0.917-1.452c0.61-0.692,1.049-1.263,1.314-1.713c0.265-0.449,0.715-1.142,1.349-2.075s1.09-1.505,1.366-1.712
		l0.796-0.83c0.368-0.53,0.887-0.796,1.556-0.796c0.507,0,1.038,0.271,1.591,0.813c0.553,0.543,0.83,1.079,0.83,1.608
		c0,0.186-0.127,0.611-0.38,1.28l-0.069,0.415c0,0.369-0.127,0.808-0.38,1.314c-0.254,0.508-0.404,0.899-0.45,1.176l-1.937,4.739
		c-0.231,0.092-0.369,0.161-0.415,0.207c-0.6,1.314-1.072,2.029-1.418,2.145v0.692c0,0.254-0.162,0.438-0.484,0.553l-0.138,0.069
		c-0.208,0.877-0.473,1.511-0.796,1.902c-0.323,0.393-0.559,0.79-0.709,1.193c-0.15,0.404-0.386,0.629-0.709,0.675
		c-0.323,0.046-0.484,0.496-0.484,1.349c-0.092,0.462-0.323,0.692-0.692,0.692c-0.346,0-0.565,0.3-0.657,0.899
		s-0.542,0.922-1.349,0.968c-0.231,0.139-0.369,0.3-0.415,0.484l0.276,0.865c0,0.138-0.427,0.68-1.28,1.625l-0.276,0.899
		c-0.438,0.162-0.796,1.35-1.072,3.563l-0.416,2.387l0.069,0.935l-0.138,0.484l0.415,1.418l-0.069,0.795
		c0,0.369,0.139,0.554,0.415,0.554c0.139,0,0.45-0.207,0.934-0.622l0.484-0.208c1.449-0.737,2.347-1.453,2.692-2.145
		c0.092-0.092,0.259-0.185,0.5-0.276s0.42-0.219,0.535-0.381c0.115-0.161,0.207-0.276,0.276-0.346
		c1.404-0.922,2.313-1.729,2.727-2.421c0.414-0.692,0.84-1.107,1.277-1.246l0.276-0.276c0.276-0.23,0.507-0.346,0.69-0.346
		c0.391,0,0.587,0.115,0.587,0.346l-0.276,0.969c0.23,0.622,0.346,0.98,0.346,1.072c0,0.808-0.358,1.303-1.073,1.487
		c-0.3,0.3-0.537,0.646-0.71,1.037c-0.173,0.393-0.548,0.635-1.125,0.727c-0.393,0.554-0.75,0.917-1.073,1.09
		s-0.484,0.352-0.484,0.536v0.312c-0.185,0.276-0.346,0.461-0.484,0.553l-0.658-0.138c-0.092,0.276-0.3,0.657-0.623,1.142
		c-0.116-0.092-0.22-0.139-0.312-0.139c-0.323,0-0.588,0.196-0.796,0.588c-0.208,0.393-0.358,0.588-0.45,0.588h-0.795
		c-0.116,0.069-0.301,0.22-0.554,0.45c-0.254,0.23-0.68,0.346-1.28,0.346l-1.073,0.207c-1.015,0-1.949-0.328-2.803-0.985
		s-1.31-1.257-1.367-1.799c-0.058-0.541-0.248-1.193-0.571-1.954l-0.069-1.418c-0.254-1.476-0.542-2.214-0.865-2.214l-0.069,0.449
		l-0.277,0.139c-0.138,0.715-0.369,1.072-0.692,1.072c-0.139,0.069-0.29,0.185-0.45,0.346l-0.208,0.139
		c-0.092,0.046-0.225,0.242-0.398,0.588c-0.173,0.346-0.652,0.83-1.437,1.453c-0.323,0.853-0.566,1.279-0.728,1.279l-0.416-0.276
		h-0.069c-0.185,0-0.335,0.271-0.45,0.813c-0.116,0.542-0.347,0.813-0.692,0.813c-0.093,0-0.18,0.155-0.26,0.467
		c-0.081,0.311-0.283,0.507-0.606,0.588s-0.612,0.397-0.866,0.951c-0.254,0.554-0.427,0.83-0.519,0.83
		c-0.046,0-0.116-0.022-0.208-0.069l-0.589,0.139c-0.115,0.161-0.278,0.427-0.485,0.795c-0.208,0.069-0.392,0.162-0.554,0.277
		c-0.716,0.691-1.663,1.037-2.84,1.037c-0.831,0-1.489-0.178-1.974-0.536c-0.485-0.356-0.774-0.662-0.866-0.916
		c-0.092-0.254-0.266-0.571-0.52-0.951C274.168,325.299,274.006,324.832,273.937,324.278z M287.751,316.427l0.242-0.449
		c0.392-0.139,0.646-0.484,0.761-1.038c0.185-0.139,0.657-0.737,1.419-1.799c0.761-1.061,1.142-1.648,1.142-1.764
		c-0.23-0.23-0.496-0.346-0.796-0.346c-0.046,0-0.185,0.046-0.415,0.138c-0.231,0.093-0.468,0.162-0.709,0.208
		c-0.242,0.046-0.502,0.138-0.779,0.276l-0.865-0.139c-0.254,0-0.819,0.335-1.696,1.004l-0.796-0.139
		c-0.138,0-0.369,0.3-0.692,0.899l-1.765,1.418h-0.208c-0.323,0-0.542,0.289-0.658,0.864c-0.392,0.508-0.761,0.859-1.107,1.056
		c-0.346,0.196-0.588,0.479-0.727,0.848v0.449c-0.646,0.715-0.969,1.257-0.969,1.626c-0.484,0.461-0.802,0.957-0.952,1.487
		c-0.15,0.53-0.329,0.98-0.536,1.349c0.092,0.323,0.161,0.721,0.208,1.193c0.046,0.473,0.276,0.709,0.692,0.709
		c0.669,0,1.407-0.403,2.214-1.21c0.046-0.047,0.242-0.174,0.588-0.381c0.346-0.208,0.825-0.617,1.437-1.229
		c0.611-0.61,0.952-0.928,1.021-0.951c0.23-0.229,0.368-0.346,0.415-0.346l0.277-0.276c0-0.092,0.098-0.195,0.294-0.312
		c0.195-0.115,0.455-0.352,0.778-0.709c0.323-0.357,0.571-0.57,0.744-0.64c0.173-0.069,0.294-0.167,0.363-0.294
		c0.069-0.127,0.185-0.248,0.347-0.363c0.161-0.115,0.242-0.242,0.242-0.381l0.069-0.415L287.751,316.427z M299.754,302.384
		l-0.346,1.003c0.3-0.046,0.565-0.357,0.796-0.934c0.691-0.991,1.164-1.603,1.418-1.834c0.299,0,0.524-0.19,0.674-0.57
		c0.15-0.381,0.421-0.755,0.813-1.124c0-0.161,0.173-0.473,0.519-0.935c0.346-0.461,0.571-0.789,0.674-0.985
		c0.104-0.195,0.317-0.455,0.64-0.778c0.322-0.322,0.628-0.876,0.917-1.66c0.288-0.784,0.536-1.257,0.744-1.418
		s0.311-0.484,0.311-0.969c0-0.669-0.046-1.003-0.138-1.003c-0.208,0-0.363,0.133-0.467,0.397c-0.104,0.266-0.329,0.605-0.675,1.021
		l-1.176,1.972c-0.461,0.784-0.767,1.406-0.917,1.868c-0.15,0.461-0.323,0.731-0.519,0.813c-0.196,0.081-0.432,0.306-0.709,0.675
		l-0.484,0.483c-0.116,0.277-0.208,0.611-0.277,1.004l-0.311,0.276v0.657c0,0.3-0.173,0.57-0.519,0.813
		c-0.346,0.242-0.519,0.398-0.519,0.467L299.754,302.384z"/>
	<path fill="#333333" d="M330.742,318.675l0.552-0.484c0.345,0,0.551-0.155,0.62-0.467c0.069-0.312,0.316-0.559,0.742-0.743
		s0.822-0.56,1.19-1.124c0.368-0.565,0.747-0.848,1.138-0.848c0.138,0,0.299,0.115,0.483,0.346c0.184,0.23,0.276,0.415,0.276,0.554
		c0,0.761-0.23,1.545-0.692,2.352l-0.138,0.969l-0.242,0.449c-0.346,0.186-0.571,0.381-0.674,0.589
		c-0.104,0.207-0.375,0.461-0.813,0.761l-0.346,0.484c-0.507,0.161-0.848,0.427-1.021,0.795c-0.173,0.369-0.415,0.577-0.726,0.623
		c-0.312,0.046-0.651,0.276-1.02,0.691c-0.231,0.116-0.507,0.22-0.83,0.312l-0.069,0.346c-0.23,0.23-0.594,0.415-1.089,0.554
		s-0.864,0.271-1.106,0.397c-0.242,0.127-0.409,0.19-0.501,0.19c-0.438,0-0.842-0.087-1.21-0.26s-0.749-0.282-1.141-0.328
		c-0.138-0.139-0.219-0.288-0.242-0.45c-0.023-0.16-0.138-0.374-0.346-0.64c-0.208-0.265-0.311-0.628-0.311-1.09l0.139-0.657
		c0-0.092-0.058-0.207-0.173-0.346c-0.116-0.138-0.173-0.253-0.173-0.346c0-0.092,0.023-0.161,0.069-0.207
		c0.046-0.046,0.069-0.115,0.069-0.208c0-0.115-0.023-0.242-0.069-0.381c-0.046-0.138-0.069-0.253-0.069-0.346l0.208-1.694
		c0-0.139-0.046-0.208-0.138-0.208c-0.092,0-0.259,0.116-0.501,0.346c-0.242,0.231-0.525,0.347-0.848,0.347
		c-0.185,0.138-0.334,0.427-0.45,0.864c-0.185,0.23-0.415,0.438-0.692,0.623l-0.138,0.207c-0.046,0.162-0.219,0.294-0.519,0.397
		c-0.3,0.104-0.508,0.237-0.623,0.398l-0.346,0.346l-0.657-0.069c-0.046,0.047-0.173,0.248-0.381,0.605s-0.473,0.651-0.796,0.882
		l-2.629,2.145c-0.277,0.185-0.681,0.415-1.211,0.692l-0.208,0.207c-1.845,1.223-3.148,1.833-3.909,1.833
		c-0.623,0-1.349-0.173-2.18-0.519c-0.83-0.346-1.28-0.761-1.349-1.245l-0.346-1.418c-0.208-0.323-0.311-0.772-0.311-1.35
		c0-0.276,0.022-0.461,0.069-0.553v-0.208l-0.069-1.142c0-0.276,0.219-0.415,0.657-0.415l-0.069-0.934
		c0-0.092,0.202-0.455,0.605-1.09c0.403-0.634,0.674-0.997,0.813-1.089l0.346-0.45c-0.023-0.276,0.138-0.57,0.485-0.882
		c0.346-0.312,0.623-0.628,0.831-0.951c0.208-0.323,0.601-0.68,1.178-1.072l1.039-1.038c0.808-0.807,1.685-1.452,2.632-1.937
		c0.138-0.046,0.421-0.277,0.848-0.692c0.427-0.415,0.913-0.72,1.455-0.916s1.073-0.444,1.593-0.744
		c0.52-0.299,0.93-0.449,1.23-0.449h0.277c0.092,0,0.704-0.288,1.835-0.865h0.208c0.092,0,0.311,0.093,0.658,0.277h0.069
		l0.555-0.277c0.092-0.046,0.208-0.069,0.346-0.069c1.431,0,2.216,0.992,2.355,2.976c0.046,0.415,0.162,0.622,0.347,0.622
		c0.23,0,0.559-0.42,0.986-1.263c0.427-0.841,1.333-1.263,2.717-1.263c0.991,0,1.487,0.635,1.487,1.903
		c0,1.499-0.669,2.917-2.006,4.254c-0.092,0.185-0.162,0.393-0.208,0.623l-0.484,1.418v0.069c0,0.138-0.099,0.328-0.294,0.57
		s-0.294,0.456-0.294,0.64l0.069,0.865l-0.138,0.969c0,0.438,0.081,0.726,0.241,0.864c0.736-0.185,1.27-0.489,1.604-0.917
		c0.333-0.426,0.569-0.662,0.707-0.709l0.345-0.138C330.225,319.194,330.466,318.906,330.742,318.675z M319.256,318.675
		c0.092-0.507,0.375-0.894,0.848-1.158s0.755-0.536,0.848-0.813c0.438-0.322,1.066-0.899,1.885-1.729
		c0.818-0.83,1.228-1.337,1.228-1.521c0-0.069-0.046-0.104-0.138-0.104h-0.069l-0.276,0.173l-0.623-0.069l-0.658,0.069l-0.484-0.242
		l-0.45,0.069l-0.692-0.139c-0.369,0-0.687,0.075-0.951,0.225c-0.265,0.15-0.773,0.317-1.522,0.502s-1.424,0.501-2.024,0.951
		c-0.6,0.449-1.038,0.674-1.314,0.674c-0.162,0.347-0.704,0.843-1.625,1.488c-0.554,0.185-0.912,0.588-1.073,1.21
		c-0.6,0.484-0.899,0.761-0.899,0.83l-0.242,0.588c-0.185,0.162-0.415,0.294-0.692,0.398c-0.277,0.104-0.438,0.346-0.484,0.727
		c-0.046,0.38-0.202,0.726-0.467,1.037c-0.266,0.312-0.398,0.56-0.398,0.744c0,1.13,0.219,1.694,0.657,1.694
		c0.185,0,0.571-0.121,1.159-0.363c0.588-0.242,0.928-0.409,1.021-0.501c0.092-0.092,0.277-0.185,0.553-0.277l0.658-0.346
		c0.092-0.092,0.196-0.149,0.312-0.173c0.115-0.022,0.23-0.098,0.346-0.225s0.323-0.265,0.623-0.415
		c0.299-0.15,0.53-0.352,0.691-0.605c0.392-0.23,1.026-0.588,1.903-1.072l0.726-0.554c0.507-0.23,0.818-0.426,0.934-0.588
		C318.68,318.998,318.91,318.837,319.256,318.675z"/>
	<path fill="#333333" d="M336.232,324.278l-0.276-1.764c0-0.139,0.069-0.357,0.208-0.657c0.138,0,0.253-0.046,0.346-0.139
		l-0.208-0.622c0-0.808,0.225-1.505,0.675-2.093s0.698-0.986,0.745-1.193c0.046-0.208,0.375-0.882,0.986-2.023
		s1.067-1.873,1.368-2.196l0.208-0.45l0.277-0.069c0.531-0.853,1.281-1.625,2.251-2.317c0.323-0.507,0.715-0.922,1.177-1.245
		c0.461-0.322,0.773-0.554,0.935-0.691c0.162-0.139,0.404-0.23,0.727-0.277l0.139-0.068c0.669-0.669,1.246-1.004,1.731-1.004
		c0.161-0.161,0.484-0.346,0.969-0.553h0.381c0.139,0,0.277-0.046,0.416-0.139c0.139-0.092,0.277-0.139,0.416-0.139
		c0.092,0,0.335,0.093,0.727,0.277c0.369-0.369,0.669-0.554,0.9-0.554c0.484,0,0.975,0.185,1.471,0.554s0.814,0.818,0.952,1.349
		c0.139,0.53,0.254,0.842,0.347,0.934c0.092,0.093,0.185,0.208,0.277,0.347c0.184,0,0.426-0.427,0.727-1.28l0.416-0.554
		c0.626-0.807,1.055-1.752,1.288-2.836c0.046-0.046,0.116-0.236,0.208-0.571c0.093-0.334,0.337-0.904,0.731-1.712
		c0.673-0.969,1.148-1.96,1.427-2.975l0.418-0.622c0.278-0.185,0.429-0.387,0.452-0.605c0.023-0.219,0.093-0.421,0.208-0.605
		s0.248-0.409,0.398-0.675c0.15-0.265,0.271-0.443,0.363-0.536c0.092-0.092,0.23-0.409,0.415-0.951
		c0.184-0.541,0.409-0.848,0.674-0.916c0.265-0.069,0.536-0.196,0.813-0.381l0.069-0.242l-0.139-0.484
		c0-0.276,0.306-0.761,0.917-1.452c0.61-0.692,1.049-1.263,1.314-1.713c0.265-0.449,0.715-1.142,1.349-2.075s1.09-1.505,1.366-1.712
		l0.796-0.83c0.368-0.53,0.887-0.796,1.556-0.796c0.507,0,1.038,0.271,1.591,0.813c0.553,0.543,0.83,1.079,0.83,1.608
		c0,0.186-0.127,0.611-0.38,1.28l-0.069,0.415c0,0.369-0.127,0.808-0.38,1.314c-0.254,0.508-0.404,0.899-0.45,1.176l-1.937,4.739
		c-0.231,0.092-0.369,0.161-0.415,0.207c-0.6,1.314-1.072,2.029-1.418,2.145v0.692c0,0.254-0.162,0.438-0.484,0.553l-0.138,0.069
		c-0.208,0.877-0.473,1.511-0.796,1.902c-0.323,0.393-0.559,0.79-0.709,1.193c-0.15,0.404-0.386,0.629-0.709,0.675
		c-0.323,0.046-0.484,0.496-0.484,1.349c-0.092,0.462-0.323,0.692-0.692,0.692c-0.346,0-0.565,0.3-0.657,0.899
		s-0.542,0.922-1.349,0.968c-0.231,0.139-0.369,0.3-0.415,0.484l0.276,0.865c0,0.138-0.427,0.68-1.28,1.625l-0.276,0.899
		c-0.438,0.162-0.796,1.35-1.072,3.563l-0.416,2.387l0.069,0.935l-0.138,0.484l0.415,1.418l-0.069,0.795
		c0,0.369,0.139,0.554,0.415,0.554c0.139,0,0.45-0.207,0.934-0.622l0.484-0.208c1.449-0.737,2.347-1.453,2.692-2.145
		c0.092-0.092,0.259-0.185,0.5-0.276s0.42-0.219,0.535-0.381c0.115-0.161,0.207-0.276,0.276-0.346
		c1.404-0.922,2.313-1.729,2.727-2.421c0.414-0.692,0.84-1.107,1.277-1.246l0.276-0.276c0.276-0.23,0.507-0.346,0.69-0.346
		c0.391,0,0.587,0.115,0.587,0.346l-0.276,0.969c0.23,0.622,0.346,0.98,0.346,1.072c0,0.808-0.358,1.303-1.073,1.487
		c-0.3,0.3-0.537,0.646-0.71,1.037c-0.173,0.393-0.548,0.635-1.125,0.727c-0.393,0.554-0.75,0.917-1.073,1.09
		s-0.484,0.352-0.484,0.536v0.312c-0.185,0.276-0.346,0.461-0.484,0.553l-0.658-0.138c-0.092,0.276-0.3,0.657-0.623,1.142
		c-0.116-0.092-0.22-0.139-0.312-0.139c-0.323,0-0.588,0.196-0.796,0.588c-0.208,0.393-0.358,0.588-0.45,0.588h-0.795
		c-0.116,0.069-0.301,0.22-0.554,0.45c-0.254,0.23-0.68,0.346-1.28,0.346l-1.073,0.207c-1.015,0-1.949-0.328-2.803-0.985
		s-1.31-1.257-1.367-1.799c-0.058-0.541-0.248-1.193-0.571-1.954l-0.069-1.418c-0.254-1.476-0.542-2.214-0.865-2.214l-0.069,0.449
		l-0.277,0.139c-0.138,0.715-0.369,1.072-0.692,1.072c-0.139,0.069-0.29,0.185-0.45,0.346l-0.208,0.139
		c-0.092,0.046-0.225,0.242-0.398,0.588c-0.173,0.346-0.652,0.83-1.437,1.453c-0.323,0.853-0.566,1.279-0.728,1.279l-0.416-0.276
		h-0.069c-0.185,0-0.335,0.271-0.45,0.813c-0.116,0.542-0.347,0.813-0.692,0.813c-0.093,0-0.18,0.155-0.26,0.467
		c-0.081,0.311-0.283,0.507-0.606,0.588s-0.612,0.397-0.866,0.951c-0.254,0.554-0.427,0.83-0.519,0.83
		c-0.046,0-0.116-0.022-0.208-0.069l-0.589,0.139c-0.115,0.161-0.278,0.427-0.485,0.795c-0.208,0.069-0.392,0.162-0.554,0.277
		c-0.716,0.691-1.663,1.037-2.84,1.037c-0.831,0-1.489-0.178-1.974-0.536c-0.485-0.356-0.774-0.662-0.866-0.916
		c-0.092-0.254-0.266-0.571-0.52-0.951C336.463,325.299,336.301,324.832,336.232,324.278z M350.046,316.427l0.242-0.449
		c0.392-0.139,0.646-0.484,0.761-1.038c0.185-0.139,0.657-0.737,1.419-1.799c0.761-1.061,1.142-1.648,1.142-1.764
		c-0.23-0.23-0.496-0.346-0.796-0.346c-0.046,0-0.185,0.046-0.415,0.138c-0.231,0.093-0.468,0.162-0.709,0.208
		c-0.242,0.046-0.502,0.138-0.779,0.276l-0.865-0.139c-0.254,0-0.819,0.335-1.696,1.004l-0.796-0.139
		c-0.138,0-0.369,0.3-0.692,0.899l-1.765,1.418h-0.208c-0.323,0-0.542,0.289-0.658,0.864c-0.392,0.508-0.761,0.859-1.107,1.056
		c-0.346,0.196-0.588,0.479-0.727,0.848v0.449c-0.646,0.715-0.969,1.257-0.969,1.626c-0.484,0.461-0.802,0.957-0.952,1.487
		c-0.15,0.53-0.329,0.98-0.536,1.349c0.092,0.323,0.161,0.721,0.208,1.193c0.046,0.473,0.276,0.709,0.692,0.709
		c0.669,0,1.407-0.403,2.214-1.21c0.046-0.047,0.242-0.174,0.588-0.381c0.346-0.208,0.825-0.617,1.437-1.229
		c0.611-0.61,0.952-0.928,1.021-0.951c0.23-0.229,0.368-0.346,0.415-0.346l0.277-0.276c0-0.092,0.098-0.195,0.294-0.312
		c0.195-0.115,0.455-0.352,0.778-0.709c0.323-0.357,0.571-0.57,0.744-0.64c0.173-0.069,0.294-0.167,0.363-0.294
		c0.069-0.127,0.185-0.248,0.347-0.363c0.161-0.115,0.242-0.242,0.242-0.381l0.069-0.415L350.046,316.427z M362.049,302.384
		l-0.346,1.003c0.3-0.046,0.565-0.357,0.796-0.934c0.691-0.991,1.164-1.603,1.418-1.834c0.299,0,0.524-0.19,0.674-0.57
		c0.15-0.381,0.421-0.755,0.813-1.124c0-0.161,0.173-0.473,0.519-0.935c0.346-0.461,0.571-0.789,0.674-0.985
		c0.104-0.195,0.317-0.455,0.64-0.778c0.322-0.322,0.628-0.876,0.917-1.66c0.288-0.784,0.536-1.257,0.744-1.418
		s0.311-0.484,0.311-0.969c0-0.669-0.046-1.003-0.138-1.003c-0.208,0-0.363,0.133-0.467,0.397c-0.104,0.266-0.329,0.605-0.675,1.021
		l-1.176,1.972c-0.461,0.784-0.767,1.406-0.917,1.868c-0.15,0.461-0.323,0.731-0.519,0.813c-0.196,0.081-0.432,0.306-0.709,0.675
		l-0.484,0.483c-0.116,0.277-0.208,0.611-0.277,1.004l-0.311,0.276v0.657c0,0.3-0.173,0.57-0.519,0.813
		c-0.346,0.242-0.519,0.398-0.519,0.467L362.049,302.384z"/>
	<path fill="#333333" d="M389.162,313.521l0.726-0.588c0.553-0.046,0.853-0.334,0.898-0.865c0.046-0.53,0.426-0.991,1.141-1.384
		l0.415-0.588c0.345-0.346,1.29-0.795,2.834-1.349c0.392-0.23,0.657-0.438,0.795-0.623c0.046-0.046,0.092-0.069,0.138-0.069
		l0.553,0.139c0.299,0,0.686-0.08,1.158-0.242c0.472-0.161,0.928-0.242,1.366-0.242l1.452-0.069c0.092,0,0.282,0.069,0.57,0.208
		c0.287,0.139,0.639,0.207,1.055,0.207c0.506,0,0.973,0.231,1.398,0.692c0.428,0.461,0.641,0.888,0.641,1.279
		c0,0.716-0.369,1.441-1.104,2.18c-0.738,0.738-1.324,1.153-1.762,1.245c-0.391,0.393-0.691,0.64-0.898,0.743
		c-0.208,0.104-0.42,0.266-0.639,0.484c-0.219,0.22-0.397,0.329-0.535,0.329c-0.092,0-0.162-0.029-0.208-0.087
		c-0.046-0.057-0.115-0.086-0.207-0.086c-0.369,0-0.771,0.449-1.208,1.349l-0.622-0.069c-0.392,0.254-0.645,0.531-0.76,0.83
		c-0.115,0.3-0.356,0.45-0.725,0.45c-0.852,0.854-1.427,1.279-1.726,1.279c-0.046,0-0.208-0.046-0.484-0.138
		c-0.184,0.23-0.276,0.473-0.276,0.726c0,0.277-0.185,0.438-0.553,0.484l-0.448,0.415l-0.346-0.069l-0.69,0.727
		c-0.345,0-0.702,0.116-1.07,0.346c-0.046,0.277-0.116,0.629-0.208,1.056c-0.092,0.427-0.138,0.663-0.138,0.709
		c0,0.669,0.611,1.003,1.833,1.003l1.661-0.242c0.438,0,0.847-0.115,1.228-0.346c0.381-0.23,0.79-0.346,1.229-0.346
		c0.139,0,0.346-0.046,0.623-0.139l0.346,0.139c0.161-0.347,0.461-0.657,0.899-0.935c0.438-0.276,0.784-0.415,1.038-0.415
		l0.346-0.207c0.092-0.277,0.23-0.461,0.415-0.554l0.277-0.242c0.185-0.185,0.357-0.276,0.519-0.276h0.484l0.139-0.069
		c0.276-0.6,0.663-0.951,1.159-1.055c0.496-0.104,0.807-0.271,0.934-0.502s0.352-0.368,0.676-0.415
		c0.322-0.046,0.594-0.201,0.813-0.467c0.219-0.265,0.49-0.513,0.813-0.744c0.324-0.229,0.549-0.402,0.676-0.519
		c0.125-0.115,0.236-0.173,0.328-0.173c0.139,0,0.207,0.104,0.207,0.312c0,0.207,0.047,0.312,0.139,0.312s0.139-0.047,0.139-0.139
		s-0.023-0.208-0.07-0.346v-0.242c0-0.346,0.186-0.576,0.555-0.692l1.557-1.003c0.047-0.484,0.178-0.767,0.398-0.848
		c0.219-0.08,0.385-0.173,0.502-0.276c0.113-0.104,0.24-0.155,0.379-0.155c0.301,0,0.451,0.173,0.451,0.519l-0.174,0.899
		l0.174,0.934c0,0.139-0.111,0.329-0.33,0.571s-0.387,0.611-0.502,1.106c-0.115,0.496-0.266,0.767-0.449,0.813h-0.209
		c-0.414,0.438-0.744,0.698-0.986,0.778c-0.242,0.081-0.432,0.226-0.57,0.433l-1.178,1.349c-0.23,0.231-0.428,0.438-0.588,0.623
		c-0.162,0.185-0.289,0.276-0.381,0.276l-0.277-0.276c0-0.046-0.047-0.069-0.139-0.069c-0.23,0-0.375,0.139-0.432,0.415
		c-0.059,0.276-0.18,0.519-0.365,0.727c-0.691,0.323-1.143,0.623-1.35,0.899l-0.207,0.069h-0.623c-0.301,0-0.508,0.225-0.623,0.674
		c-0.115,0.45-0.444,0.709-0.987,0.778s-0.929,0.208-1.16,0.415c-0.046,0.047-0.15,0.093-0.312,0.139
		c-0.162,0.047-0.485,0.23-0.969,0.554l-2.908,1.037c-0.231,0.116-0.381,0.173-0.45,0.173l-0.969,0.139
		c-0.139,0-0.277-0.092-0.416-0.276c-0.138-0.185-0.23-0.277-0.276-0.277l-0.624,0.208c-0.461,0.139-0.9,0.207-1.315,0.207
		c-0.231,0-0.485-0.08-0.762-0.242c-0.277-0.16-0.497-0.276-0.657-0.346c-0.67,0-1.143-0.519-1.419-1.557l-0.416,0.069
		c-0.092,0-0.404-0.818-0.935-2.456c-0.138-0.184-0.358-0.316-0.657-0.397c-0.3-0.08-0.45-0.306-0.45-0.675
		c0-1.037,0.225-1.734,0.675-2.092s0.697-0.628,0.744-0.813l0.483-1.799c0.092-0.068,0.208-0.299,0.346-0.691l0.795-1.453
		C388.632,314.57,388.839,314.167,389.162,313.521z M396.477,311.446l-0.415,0.207c-0.092,0.047-0.363,0.248-0.813,0.605
		s-0.888,0.646-1.314,0.864c-0.427,0.22-0.865,0.791-1.314,1.713s-0.675,1.452-0.675,1.591s0.069,0.207,0.208,0.207l1.176-0.519
		c0.438-0.207,0.847-0.472,1.228-0.795c0.38-0.323,0.928-0.715,1.643-1.177l0.277-0.276c0.046-0.092,0.259-0.26,0.64-0.502
		c0.38-0.242,0.663-0.478,0.847-0.709l0.346-0.138c0.392-0.623,0.79-1.004,1.193-1.142c0.403-0.139,0.605-0.277,0.605-0.415
		c0-0.277-0.219-0.415-0.657-0.415c-0.185,0-0.461,0.115-0.83,0.346h-0.795c-0.092,0-0.346,0.139-0.761,0.415L396.477,311.446z"/>
	<path fill="#333333" d="M437.8,320.819h0.139l0.347,0.139c0.046,0,0.092-0.022,0.139-0.069c0-0.392,0.185-0.727,0.555-1.003
		c0.115-0.438,0.376-0.772,0.78-1.003s1.046-0.611,1.924-1.142l0.867-0.761l0.416-0.208l0.277-0.346
		c0.254-0.3,0.496-0.449,0.728-0.449c0.347,0,0.52,0.127,0.52,0.38l-0.312,0.692l0.139,1.141c0,0.415-0.144,0.784-0.433,1.107
		c-0.288,0.323-0.733,0.795-1.333,1.418l-1.767,1.868l-0.936,0.484c-0.231,0.138-0.438,0.3-0.623,0.483l-1.352,1.142
		c0,0.323-0.104,0.565-0.311,0.727h-0.555l-0.276,0.139c-0.162,0.438-0.636,0.864-1.421,1.279l-0.484,0.346
		c-0.162,0.139-0.313,0.208-0.45,0.208l-0.971-0.139l-0.657,0.139c-0.185,0-0.434-0.092-0.745-0.276s-0.629-0.329-0.952-0.433
		s-0.733-0.53-1.229-1.28c-0.497-0.749-0.768-1.239-0.813-1.47c0-0.092-0.053-0.247-0.156-0.467
		c-0.104-0.219-0.156-0.352-0.156-0.397c0-0.047,0.104-0.277,0.313-0.692v-0.069c0-0.069-0.064-0.229-0.191-0.484
		c-0.127-0.253-0.19-0.564-0.19-0.934c0-0.207-0.069-0.473-0.207-0.796c0.185-0.184,0.276-0.322,0.276-0.415
		c0-0.092-0.034-0.225-0.104-0.397s-0.104-0.306-0.104-0.397l0.207-1.695l-0.138-0.864l0.068-0.83c0-0.484-0.207-0.727-0.62-0.727
		c-0.184,0-0.413,0.127-0.689,0.38l-0.24,0.069c-0.621,0.3-1.058,0.548-1.311,0.744s-0.518,0.294-0.793,0.294
		c-0.138,0.139-0.402,0.266-0.793,0.38l-0.275,0.208c-0.092,0.093-0.275,0.23-0.551,0.415c0,0.069-0.432,0.456-1.293,1.159
		s-1.638,1.366-2.327,1.988c-0.689,0.623-1.188,0.963-1.499,1.021s-0.465,0.352-0.465,0.882c0,0.093-0.207,0.277-0.621,0.554
		c-0.046,0-0.287,0.254-0.724,0.761c-0.367-0.276-0.574-0.415-0.62-0.415c-0.301,0-0.521,0.381-0.659,1.142
		c-0.139,0.3-0.509,0.484-1.109,0.554c-0.047,0.023-0.128,0.196-0.243,0.519l-0.139,0.139h-0.347c-0.047,0-0.208,0.133-0.485,0.397
		c-0.277,0.266-0.521,0.433-0.729,0.502c-0.301,0.622-0.555,0.934-0.763,0.934c-0.093,0-0.226-0.046-0.398-0.139
		c-0.174-0.092-0.388-0.173-0.642-0.242s-0.536-0.351-0.848-0.847c-0.311-0.496-0.467-0.917-0.467-1.263
		c0-2.56,0.496-3.955,1.487-4.186l0.069-0.139v-0.276c0-0.3,0.133-0.513,0.398-0.64c0.265-0.127,0.536-0.381,0.813-0.762
		c0.276-0.38,0.461-0.593,0.554-0.64h0.449c0.092,0,0.139-0.242,0.139-0.727c0-0.138,0.057-0.265,0.173-0.38
		c0.115-0.115,0.185-0.282,0.207-0.502c0.023-0.219,0.19-0.576,0.502-1.072c0.312-0.495,0.467-0.789,0.467-0.882l-0.069-0.139
		c-0.576,0.531-0.991,0.819-1.245,0.865s-0.6,0.38-1.037,1.003l-0.554-0.104c-0.97,0.715-1.57,1.118-1.802,1.21
		c-0.231,0.093-0.485,0.358-0.763,0.796c0,0.139-0.081,0.23-0.243,0.276c-0.162,0.047-0.463,0.231-0.901,0.554h-0.208
		c-0.579,0-0.868-0.415-0.868-1.245l0.727-1.972c0.207-0.622,0.696-1.146,1.468-1.573c0.772-0.427,1.423-0.836,1.953-1.229
		c0.529-0.392,1.06-0.6,1.59-0.622l0.241-0.347c0.783-0.299,1.313-0.771,1.59-1.418c0.276-0.646,0.656-0.969,1.141-0.969
		c1.268,0,2.235,0.468,2.903,1.401s1.002,1.678,1.002,2.23l0.069,0.935c0,0.323-0.069,0.772-0.207,1.349
		c-0.277,0.415-0.415,0.727-0.415,0.934c0,0.186,0.115,0.277,0.346,0.277c0.138,0,0.322-0.098,0.552-0.294
		c0.23-0.196,0.49-0.375,0.778-0.536s0.455-0.3,0.501-0.415c0.23-0.554,0.633-0.935,1.209-1.142
		c0.576-0.208,0.934-0.381,1.072-0.519l0.346-0.277l0.276-0.519c0.621-0.276,1.036-0.53,1.243-0.761
		c0.208-0.23,0.484-0.381,0.83-0.45s0.737-0.276,1.176-0.622l0.518-0.139l0.484-0.276c0.046-0.046,0.184-0.104,0.414-0.173
		c0.23-0.069,0.57-0.19,1.02-0.363s0.754-0.26,0.916-0.26c1.175,0,2.102,0.473,2.781,1.418c0.681,0.946,1.021,1.707,1.021,2.283
		l-0.069,0.622l0.139,0.935v0.138l-0.277,1.903l0.069,0.657c0,1.084-0.23,1.833-0.691,2.248c-0.116,0.046-0.173,0.161-0.173,0.346
		v0.312l0.691,1.452c0.207,0.508,0.369,0.762,0.484,0.762l1.11-0.312c0.323-0.092,0.589-0.334,0.797-0.727
		c0.186-0.092,0.509-0.368,0.971-0.83C437.279,321.005,437.499,320.819,437.8,320.819z"/>
	<path fill="#333333" d="M465.414,325.628l0.38-0.52c0.139-0.184,0.208-0.392,0.208-0.622l0.83-2.456
		c0.3-0.876,0.473-1.36,0.519-1.453l0.139-0.691l0.415-0.796l0.139-0.899c0.092-0.668,0.426-1.66,1.003-2.975l0.069-0.519
		l0.276-0.761v-0.139c0-0.23-0.069-0.346-0.208-0.346h-0.276c-0.415,0-0.646,0.093-0.691,0.276l-0.242,0.969
		c0,0.346-0.208,0.519-0.623,0.519c-0.046,0-0.167-0.034-0.363-0.104s-0.317-0.104-0.363-0.104
		c-0.138,0.276-0.323,0.622-0.553,1.037c-0.231,0.093-0.611,0.335-1.142,0.727l-0.345,0.069c-0.254,0.369-0.634,0.75-1.142,1.142
		l-0.138,0.207c-0.323,0.508-0.771,0.762-1.348,0.762c-0.761,0-1.141-0.52-1.141-1.557c0-0.646,0.312-1.136,0.934-1.471
		c0.622-0.334,1.025-0.634,1.21-0.899c0.185-0.265,0.681-0.628,1.487-1.089l0.346-0.484c0.185-0.254,0.346-0.381,0.484-0.381
		l0.588-0.207c0.092-0.092,0.3-0.139,0.623-0.139l-0.069-0.484c0-0.138,0.288-0.288,0.864-0.449
		c0.138-0.139,0.455-0.392,0.951-0.761c0.495-0.369,1.354-1.36,2.576-2.976c0.092-0.229,0.271-0.408,0.536-0.536
		c0.265-0.126,0.489-0.281,0.675-0.467h0.69c0.185,0,0.6,0.312,1.245,0.935c0.646,0.622,0.969,1.418,0.969,2.387l-1.003,4.462
		l0.069,0.311l-0.069,0.277c0,0.092,0.046,0.138,0.139,0.138c0.092,0,0.288-0.184,0.589-0.553c0.139-0.438,0.422-0.772,0.849-1.003
		c0.428-0.23,0.745-0.479,0.953-0.744c0.208-0.265,0.491-0.501,0.849-0.709s0.832-0.548,1.421-1.021s1.126-0.731,1.611-0.778
		l0.346-0.207l0.14-0.52c0.415-0.322,0.865-0.622,1.351-0.899l0.832-0.656c0.993-0.323,1.732-0.484,2.218-0.484
		c0.23,0,0.438-0.092,0.623-0.277l0.797,0.346c0.047,0,0.139-0.068,0.277-0.207c0-0.046,0.046-0.069,0.139-0.069
		c0.947,0,1.749,0.369,2.407,1.107s0.987,1.545,0.987,2.421c0,0.046-0.035,0.15-0.104,0.312c-0.069,0.161-0.104,0.3-0.104,0.415
		l0.208,0.553v0.069l-0.761,1.972c-0.069,0.23-0.208,0.877-0.415,1.938c-0.438,0.691-0.952,1.349-1.54,1.972
		c-0.588,0.622-0.974,1.095-1.158,1.418c0.092,0.092,0.173,0.138,0.242,0.138c0.207,0,0.507-0.207,0.899-0.622l1.625-1.003
		l0.277,0.138c0.322-0.229,0.655-0.495,1-0.795s0.645-0.461,0.897-0.484c0.137-0.185,0.379-0.415,0.724-0.692l0.345-0.38
		c0.139,0,0.3-0.081,0.483-0.242s0.396-0.265,0.638-0.312c0.241-0.046,0.489-0.225,0.742-0.536s0.465-0.489,0.638-0.536
		c0.173-0.046,0.282-0.139,0.328-0.276c0.781-0.784,1.391-1.211,1.828-1.28l0.414-0.138c0.045-0.046,0.091-0.069,0.138-0.069
		c0.253,0,0.448,0.242,0.586,0.727l-0.449,0.691v0.346l0.104,0.381c0,0.23-0.139,0.524-0.415,0.882s-0.587,0.536-0.934,0.536
		c-0.392,0.185-0.628,0.387-0.709,0.605c-0.081,0.22-0.421,0.536-1.021,0.951c-0.599,0.415-0.968,0.778-1.106,1.09
		c-0.138,0.311-0.334,0.467-0.587,0.467l-0.623-0.208c-0.53,0.692-0.888,1.016-1.071,0.969h-0.208l-0.138,0.069l-0.415,0.864
		c-0.254,0.047-0.45,0.116-0.588,0.208l-0.347-0.069c-1.406,1.407-2.305,2.11-2.696,2.11l-0.623-0.069
		c-0.046,0-0.155,0.133-0.328,0.397c-0.173,0.266-0.317,0.456-0.432,0.57c-0.116,0.116-0.266,0.289-0.45,0.52h-0.727
		c-0.185,0-0.53,0.196-1.037,0.588c0,0.046-0.023,0.069-0.069,0.069l-0.519-0.208h-0.069c-0.23,0-0.53,0.185-0.898,0.554
		l-1.072,0.415c0,0.047-0.023,0.069-0.069,0.069l-0.726-0.139c-0.139,0-0.346,0.116-0.623,0.346l-0.276,0.173
		c-0.139,0-0.381,0.116-0.727,0.347l-1.106,0.415c-0.115-0.046-0.219-0.069-0.312-0.069l-0.622,0.069l-0.553-0.139
		c-0.116,0-0.289,0.161-0.52,0.484c0,0.046-0.046,0.069-0.138,0.069c-0.047,0-0.162-0.023-0.346-0.069h-0.415l-0.796,0.207
		c-0.185,0-0.513-0.184-0.985-0.553s-0.777-0.703-0.916-1.004l-0.346-0.553c-0.323-0.139-0.542-0.277-0.657-0.415l-0.276,0.138
		c-0.023,0.093-0.121,0.242-0.294,0.45c-0.173,0.207-0.26,0.357-0.26,0.449c0,0.3-0.11,0.698-0.329,1.193
		c-0.22,0.496-0.538,1.378-0.954,2.646l-0.451,0.554c-0.093,0.114-0.139,0.229-0.139,0.346c0,0.207-0.186,0.564-0.555,1.072
		c-0.023,0.576-0.243,1.152-0.659,1.729l-0.139,0.346v0.484c0,0.138-0.231,0.703-0.694,1.694l-0.069,0.727
		c-0.139,0.022-0.375,0.479-0.709,1.366c-0.335,0.888-0.732,1.631-1.193,2.231l-0.312,1.142l-0.346,0.622l-0.208,0.657
		c-0.046,0.115-0.115,0.208-0.207,0.276l-0.069,0.347l-0.208,0.138c0.046,0.347-0.173,0.922-0.657,1.729
		c0,0.092-0.115,0.254-0.346,0.484c-0.229,0.23-0.495,0.571-0.795,1.021c-0.3,0.45-0.738,0.858-1.314,1.228l-1.487,0.935
		c-1.107,0-1.868-0.588-2.283-1.765c-0.046-0.138-0.271-0.519-0.675-1.141c-0.403-0.623-0.605-1.546-0.605-2.768l0.312-1.418
		c0.208-1.269,0.438-2.064,0.692-2.387l0.415-0.934c0.046-0.186,0.127-0.363,0.242-0.536c0.115-0.174,0.236-0.438,0.363-0.796
		s0.443-0.698,0.951-1.021c0.322-0.738,0.657-1.372,1.003-1.902l0.484-0.934c0-0.277,0.242-0.577,0.726-0.899
		c0.208-0.438,0.496-0.882,0.865-1.332c0.369-0.449,0.611-0.721,0.727-0.813c0.115-0.093,0.219-0.387,0.311-0.882
		c0.093-0.496,0.295-0.802,0.605-0.917c0.312-0.115,0.49-0.265,0.536-0.45l0.346-0.588c0.23-0.184,0.455-0.472,0.675-0.864
		c0.219-0.392,0.467-0.646,0.744-0.761C464.883,325.904,465.16,325.628,465.414,325.628z M457.292,344.755
		c0.115-0.068,0.703-0.968,1.764-2.697l0.346-0.657c0.208-0.369,0.404-0.669,0.589-0.899l0.068-0.276
		c0.116-0.116,0.231-0.289,0.347-0.52l1.902-5.016c0.276-0.738,0.455-1.262,0.536-1.573c0.08-0.312,0.397-1.274,0.951-2.889
		c-0.139,0.047-0.277,0.213-0.415,0.502c-0.139,0.288-0.254,0.433-0.347,0.433l-0.519,0.068c-0.046,0-0.23,0.416-0.554,1.246
		l-0.138,0.173c-0.346,0.046-0.576,0.229-0.692,0.553l-0.588,1.211v0.484c0,0.554-0.403,1.072-1.21,1.557
		c-0.254,0.668-0.415,1.003-0.484,1.003h-0.346l0.138,0.623c0,0.529-0.155,0.985-0.467,1.366c-0.312,0.38-0.467,0.593-0.467,0.64
		l0.069,0.691l-0.069,0.623c-0.277,0.668-0.415,1.476-0.415,2.421V344.755z M473.939,321.649l1.211-0.207
		c0.646-0.139,1.003-0.208,1.072-0.208c0.046,0,0.149,0.035,0.312,0.104c0.16,0.068,0.34,0.138,0.536,0.207
		c0.195,0.069,0.408,0.323,0.64,0.761c1.13-0.53,1.811-0.91,2.041-1.142c0.23-0.229,0.427-0.346,0.588-0.346
		c0.046,0,0.115,0.023,0.208,0.069c0.046-0.115,0.104-0.253,0.173-0.415c0.069-0.161,0.236-0.352,0.501-0.57
		c0.266-0.22,0.675-0.721,1.229-1.505l1.142-1.28l1.21-1.764c0.3-0.461,0.554-1.003,0.762-1.626l0.207-0.449
		c0.092-0.277,0.139-0.438,0.139-0.484c0-0.161-0.162-0.542-0.484-1.142l-0.865,0.381v-0.069c-0.276-0.208-0.507-0.312-0.691-0.312
		c-0.139,0-0.266,0.087-0.381,0.26s-0.282,0.282-0.501,0.328c-0.22,0.047-0.41,0.15-0.571,0.312s-0.375,0.254-0.64,0.276
		c-0.266,0.023-0.56,0.196-0.882,0.52l-0.415-0.069l-0.242,0.173l-0.415-0.104c-0.484,0.553-0.825,0.894-1.021,1.021
		c-0.196,0.127-0.468,0.432-0.813,0.916h-0.484c-0.185,0-0.357,0.254-0.519,0.761c-0.23,0.139-0.462,0.358-0.691,0.657l-0.865,0.347
		c-0.185,0.3-0.393,0.53-0.622,0.691l-1.35,1.729c-0.092,0.093-0.196,0.15-0.312,0.173c-0.115,0.023-0.23,0.058-0.346,0.104
		l0.173,0.692h-0.104c-0.554,0.3-0.899,0.83-1.038,1.591l-0.207,0.83c0,0.139,0.046,0.208,0.139,0.208
		c0.092,0,0.219-0.081,0.38-0.242s0.45-0.393,0.865-0.692C473.421,321.835,473.732,321.673,473.939,321.649z"/>
	<path fill="#333333" d="M493.504,315.631l0.555-0.484h0.208c0.161,0,0.403-0.173,0.727-0.519l0.347-0.139
		c0.461-0.691,0.865-1.095,1.212-1.21l0.554-0.415c0.092-0.092,0.226-0.173,0.398-0.242s0.45-0.294,0.831-0.675
		c0.38-0.38,0.687-0.57,0.918-0.57c0.23,0,0.415,0.023,0.554,0.069c0.139-0.277,0.415-0.548,0.83-0.813
		c0.416-0.265,0.751-0.582,1.005-0.951l0.45-0.207c0.369-0.185,0.698-0.421,0.986-0.709c0.289-0.288,0.664-0.433,1.126-0.433
		c0.669,0,1.367,0.34,2.094,1.021c0.727,0.68,1.09,1.331,1.09,1.954l-0.588,2.698c-0.393,1.983-0.83,3.021-1.314,3.112l-0.139,0.727
		c-0.323,0.23-0.484,0.415-0.484,0.554l0.208,0.83c0,0.115-0.127,0.288-0.381,0.519c-0.047,0-0.069,0.069-0.069,0.208v1.418
		c0,0.254-0.161,0.462-0.484,0.622c0.046,0.047,0.115,0.093,0.208,0.139c0.139-0.139,0.449-0.207,0.934-0.207l0.553,0.068
		l0.76-0.761c0.161-0.046,0.386-0.155,0.674-0.328c0.287-0.173,0.777-0.398,1.469-0.675l4.525-3.459
		c0.621-0.622,1.093-0.934,1.416-0.934c0.345,0,0.518,0.22,0.518,0.657c0,0.507-0.098,0.929-0.294,1.263s-0.375,0.738-0.536,1.21
		c-0.161,0.474-0.352,0.802-0.57,0.986s-0.397,0.386-0.536,0.605c-0.138,0.219-0.513,0.536-1.124,0.951s-1.13,0.836-1.557,1.262
		c-0.426,0.428-0.777,0.732-1.054,0.917l-1.487,1.072l-0.207,0.346c-0.047,0.047-0.26,0.145-0.641,0.294
		c-0.38,0.15-0.721,0.341-1.021,0.571l-0.622,0.346c-0.138,0.093-0.362,0.15-0.674,0.173c-0.312,0.023-0.583,0.155-0.813,0.397
		s-0.415,0.363-0.553,0.363l-0.52-0.069l-0.69,0.208c-0.393,0-0.871-0.236-1.436-0.709c-0.565-0.473-0.848-0.974-0.848-1.505v-0.207
		l0.069-0.484c0-0.092-0.069-0.329-0.208-0.709c-0.138-0.381-0.207-0.594-0.207-0.641l0.069-0.484l-0.069-0.207
		c0-0.623,0.046-1.015,0.138-1.176c0.093-0.161,0.161-0.386,0.208-0.675c0.046-0.288,0.092-0.524,0.139-0.709l0.173-0.865
		c0.092-0.276,0.207-0.461,0.346-0.553c0.046-0.185,0.139-0.496,0.276-0.935l0.139-0.622l0.346-0.484
		c0.185-0.185,0.294-0.433,0.329-0.744c0.034-0.311,0.155-0.64,0.363-0.985c0.207-0.346,0.311-0.554,0.311-0.623
		c0-0.276-0.138-0.415-0.415-0.415c-0.092,0-0.38,0.186-0.864,0.554l-0.623-0.207c-0.047,0-0.173,0.115-0.381,0.346
		c0,0.092-0.104,0.161-0.312,0.207c-0.207,0.047-0.403,0.22-0.588,0.52l-0.277,0.068l-0.449-0.207h-0.139
		c-0.23,0-0.369,0.254-0.415,0.761c-0.254,0.369-0.589,0.611-1.004,0.727l-0.761,0.207c-0.254,0.093-0.438,0.301-0.554,0.623
		c-0.116,0.323-0.346,0.617-0.692,0.882c-0.346,0.266-0.576,0.398-0.691,0.398c-0.646,0-0.969-0.357-0.969-1.072l0.277-1.626
		L493.504,315.631z M508.447,298.337l-0.208-1.35v-0.207c0-1.084,0.368-1.684,1.106-1.799c0.161-0.022,0.646-0.173,1.453-0.45
		c0.415,0.093,0.848,0.456,1.297,1.09c0.45,0.635,0.675,1.193,0.675,1.678c0,0.047-0.034,0.15-0.104,0.312s-0.116,0.467-0.139,0.916
		c-0.023,0.45-0.248,0.843-0.675,1.177s-0.882,0.501-1.366,0.501c-0.323,0-0.732-0.225-1.228-0.674
		C508.764,299.08,508.493,298.683,508.447,298.337z"/>
	<path fill="#333333" d="M519.667,313.521l0.727-0.588c0.553-0.046,0.853-0.334,0.898-0.865c0.046-0.53,0.427-0.991,1.141-1.384
		l0.415-0.588c0.346-0.346,1.29-0.795,2.835-1.349c0.392-0.23,0.657-0.438,0.795-0.623c0.046-0.046,0.092-0.069,0.138-0.069
		l0.554,0.139c0.3,0,0.686-0.08,1.157-0.242c0.473-0.161,0.929-0.242,1.366-0.242l1.451-0.069c0.093,0,0.282,0.069,0.57,0.208
		s0.64,0.207,1.055,0.207c0.507,0,0.974,0.231,1.399,0.692c0.427,0.461,0.641,0.888,0.641,1.279c0,0.716-0.369,1.441-1.104,2.18
		c-0.737,0.738-1.324,1.153-1.762,1.245c-0.391,0.393-0.69,0.64-0.897,0.743c-0.207,0.104-0.42,0.266-0.639,0.484
		c-0.219,0.22-0.397,0.329-0.535,0.329c-0.092,0-0.161-0.029-0.207-0.087c-0.046-0.057-0.115-0.086-0.207-0.086
		c-0.369,0-0.771,0.449-1.208,1.349l-0.622-0.069c-0.391,0.254-0.645,0.531-0.76,0.83c-0.115,0.3-0.356,0.45-0.725,0.45
		c-0.852,0.854-1.428,1.279-1.727,1.279c-0.046,0-0.207-0.046-0.483-0.138c-0.185,0.23-0.276,0.473-0.276,0.726
		c0,0.277-0.184,0.438-0.552,0.484l-0.449,0.415l-0.345-0.069l-0.691,0.727c-0.345,0-0.701,0.116-1.069,0.346
		c-0.047,0.277-0.116,0.629-0.208,1.056c-0.093,0.427-0.139,0.663-0.139,0.709c0,0.669,0.611,1.003,1.834,1.003l1.66-0.242
		c0.438,0,0.848-0.115,1.229-0.346c0.38-0.23,0.789-0.346,1.229-0.346c0.138,0,0.346-0.046,0.622-0.139l0.346,0.139
		c0.161-0.347,0.461-0.657,0.899-0.935c0.438-0.276,0.784-0.415,1.038-0.415l0.347-0.207c0.092-0.277,0.229-0.461,0.415-0.554
		l0.276-0.242c0.185-0.185,0.357-0.276,0.519-0.276h0.484l0.139-0.069c0.276-0.6,0.662-0.951,1.158-1.055
		c0.496-0.104,0.808-0.271,0.935-0.502s0.352-0.368,0.675-0.415c0.322-0.046,0.594-0.201,0.813-0.467
		c0.219-0.265,0.49-0.513,0.813-0.744c0.323-0.229,0.548-0.402,0.675-0.519c0.126-0.115,0.236-0.173,0.328-0.173
		c0.139,0,0.208,0.104,0.208,0.312c0,0.207,0.046,0.312,0.139,0.312c0.092,0,0.138-0.047,0.138-0.139s-0.022-0.208-0.069-0.346
		v-0.242c0-0.346,0.185-0.576,0.554-0.692l1.557-1.003c0.047-0.484,0.179-0.767,0.398-0.848c0.219-0.08,0.386-0.173,0.502-0.276
		c0.114-0.104,0.241-0.155,0.38-0.155c0.3,0,0.45,0.173,0.45,0.519l-0.174,0.899l0.174,0.934c0,0.139-0.11,0.329-0.329,0.571
		c-0.22,0.242-0.387,0.611-0.502,1.106c-0.115,0.496-0.266,0.767-0.45,0.813h-0.208c-0.415,0.438-0.744,0.698-0.986,0.778
		c-0.242,0.081-0.433,0.226-0.571,0.433l-1.177,1.349c-0.231,0.231-0.428,0.438-0.589,0.623c-0.162,0.185-0.289,0.276-0.381,0.276
		l-0.276-0.276c0-0.046-0.047-0.069-0.139-0.069c-0.231,0-0.375,0.139-0.433,0.415s-0.179,0.519-0.364,0.727
		c-0.691,0.323-1.143,0.623-1.35,0.899l-0.208,0.069h-0.623c-0.3,0-0.507,0.225-0.623,0.674c-0.115,0.45-0.444,0.709-0.986,0.778
		s-0.929,0.208-1.159,0.415c-0.047,0.047-0.15,0.093-0.313,0.139c-0.161,0.047-0.484,0.23-0.969,0.554l-2.907,1.037
		c-0.231,0.116-0.382,0.173-0.45,0.173l-0.97,0.139c-0.139,0-0.277-0.092-0.415-0.276c-0.139-0.185-0.231-0.277-0.277-0.277
		l-0.623,0.208c-0.461,0.139-0.9,0.207-1.315,0.207c-0.231,0-0.485-0.08-0.762-0.242c-0.277-0.16-0.496-0.276-0.657-0.346
		c-0.67,0-1.143-0.519-1.419-1.557l-0.416,0.069c-0.093,0-0.403-0.818-0.935-2.456c-0.139-0.184-0.357-0.316-0.657-0.397
		c-0.3-0.08-0.449-0.306-0.449-0.675c0-1.037,0.225-1.734,0.674-2.092c0.45-0.357,0.697-0.628,0.744-0.813l0.483-1.799
		c0.092-0.068,0.208-0.299,0.346-0.691l0.795-1.453C519.138,314.57,519.345,314.167,519.667,313.521z M526.982,311.446l-0.415,0.207
		c-0.093,0.047-0.363,0.248-0.813,0.605c-0.45,0.357-0.889,0.646-1.314,0.864c-0.427,0.22-0.865,0.791-1.314,1.713
		c-0.45,0.922-0.675,1.452-0.675,1.591s0.069,0.207,0.208,0.207l1.176-0.519c0.438-0.207,0.848-0.472,1.228-0.795
		c0.381-0.323,0.929-0.715,1.644-1.177l0.276-0.276c0.046-0.092,0.26-0.26,0.64-0.502c0.381-0.242,0.663-0.478,0.848-0.709
		l0.346-0.138c0.393-0.623,0.79-1.004,1.193-1.142c0.403-0.139,0.605-0.277,0.605-0.415c0-0.277-0.22-0.415-0.657-0.415
		c-0.185,0-0.461,0.115-0.83,0.346h-0.796c-0.092,0-0.346,0.139-0.761,0.415L526.982,311.446z"/>
	<path fill="#333333" d="M541.249,319.401v-0.242c0-0.322,0.022-0.576,0.069-0.761c-0.139-0.369-0.208-0.703-0.208-1.003
		c0-0.046,0.115-0.369,0.346-0.969l0.312-1.072c0.161-0.415,0.254-0.634,0.276-0.657c-0.138-0.368-0.207-0.576-0.207-0.623
		c0-0.529,0.149-0.968,0.449-1.313c0.299-0.347,0.553-0.831,0.761-1.453l0.691-2.11l1.141-2.767
		c0.022-0.069,0.132-0.254,0.327-0.554c0.196-0.3,0.357-0.559,0.484-0.778c0.127-0.219,0.306-0.536,0.536-0.951l0.347-0.069
		c0.092-0.092,0.138-0.184,0.138-0.276c0-0.046-0.046-0.23-0.138-0.554l1.21-2.006l0.727-1.487c0.23-0.392,0.484-0.646,0.761-0.761
		c0.461-0.854,0.865-1.372,1.211-1.557c0.139-0.438,0.392-0.911,0.761-1.418l0.657-0.069c0.115-0.323,0.23-0.565,0.346-0.727
		l0.069-0.692c0,0.139,0.058,0.099,0.173-0.12c0.115-0.22,0.288-0.629,0.52-1.229l0.934-1.072l0.276-0.484
		c0.115-0.161,0.3-0.472,0.554-0.934c0.346-0.139,0.634-0.392,0.864-0.761l0.727-0.588c-0.046-0.254,0.23-0.818,0.83-1.695
		c0.393-0.161,0.749-0.368,1.072-0.623l0.484-0.138c0-0.807,0.288-1.36,0.865-1.66l0.415-0.277c0.368-0.184,0.576-0.276,0.622-0.276
		l0.242-0.069c0.277-0.092,0.6-0.139,0.969-0.139c0.853,0,1.626,0.317,2.317,0.951c0.691,0.635,1.038,1.355,1.038,2.162
		c0,0.323-0.173,0.657-0.52,1.003l-0.138,0.277c-0.323,1.269-0.554,1.902-0.692,1.902c-0.092,0-0.219,0.069-0.38,0.207
		c-0.047,0.761-0.093,1.188-0.139,1.28c-0.415,0.069-0.623,0.588-0.623,1.557c-0.046,0.138-0.213,0.375-0.501,0.709
		c-0.289,0.334-0.514,0.795-0.675,1.384c-0.161,0.588-0.334,0.882-0.519,0.882h-0.381l0.104,0.519c0,0.323-0.156,0.64-0.468,0.951
		c-0.311,0.312-0.501,0.64-0.57,0.986c-0.069,0.346-0.346,0.761-0.83,1.245l-0.346,0.553c-0.139,0.231-0.323,0.474-0.554,0.727
		c-0.23,0.254-0.427,0.646-0.588,1.176l-0.899,1.661c-0.623,1.13-1.096,1.672-1.418,1.625c-0.208,0.899-0.346,1.418-0.415,1.557
		s-0.231,0.266-0.484,0.381c-0.254,0.115-0.45,0.317-0.588,0.605c-0.139,0.288-0.289,0.501-0.45,0.64l-0.622,1.279
		c-0.369,0.162-0.635,0.462-0.796,0.899c-0.369,0.093-0.6,0.404-0.691,0.935c-0.093,0.092-0.208,0.3-0.347,0.622l-1.21,1.211
		c-0.623,0.438-0.957,0.939-1.003,1.505c-0.047,0.564-0.347,0.847-0.899,0.847c-0.393,0-0.969-0.173-1.729-0.519h-0.069
		c-0.069,0.323-0.23,0.681-0.484,1.072l0.139,0.934c0,0.116-0.186,0.843-0.554,2.18c0.185,0.346,0.276,0.588,0.276,0.727
		l-0.068,0.761l0.173,0.934c0.114,0.761,0.392,1.142,0.83,1.142l0.829,0.139c0.046,0,0.334-0.173,0.864-0.52l1.279-0.691
		c0.046,0,0.068,0.023,0.068,0.069c0.23,0.092,0.415,0.139,0.554,0.139c0.229,0,0.346-0.185,0.346-0.554v-0.45
		c0.138-0.229,0.305-0.368,0.501-0.415c0.195-0.046,0.374-0.149,0.536-0.311c0.161-0.161,0.288-0.242,0.38-0.242h0.346
		c0.346,0,0.519-0.403,0.519-1.211c0.092-0.046,0.207-0.139,0.346-0.276h0.414c0.185,0,0.387-0.226,0.605-0.675
		c0.219-0.45,0.374-0.721,0.467-0.813c0.414-0.047,0.702-0.115,0.864-0.208c0.737-1.337,1.302-2.006,1.693-2.006h0.208
		c0.391-0.369,0.604-0.697,0.639-0.986c0.035-0.288,0.15-0.479,0.346-0.57s0.375-0.208,0.536-0.346
		c0.161-0.139,0.265-0.208,0.312-0.208c0.346,0,0.519,0.127,0.519,0.381l-0.104,0.968l0.242,1.038c0,0.093-0.098,0.271-0.294,0.536
		c-0.195,0.266-0.293,0.56-0.293,0.882c0,0.669-0.116,1.026-0.346,1.072c-0.23,0.047-0.421,0.202-0.57,0.467
		c-0.15,0.266-0.398,0.508-0.744,0.727c-0.346,0.22-0.61,0.536-0.794,0.951l-0.589,0.139l-0.345,0.207
		c-0.277,0.716-0.571,1.153-0.882,1.314c-0.312,0.162-0.697,0.646-1.158,1.453c-0.069,0-0.104,0.023-0.104,0.069l-0.553-0.069
		c-0.208,0.369-0.415,0.588-0.623,0.657c-0.207,0.069-0.38,0.202-0.519,0.397c-0.138,0.196-0.386,0.363-0.742,0.502
		c-0.357,0.139-0.583,0.3-0.675,0.484s-0.23,0.288-0.415,0.312c-0.184,0.022-0.356,0.109-0.518,0.259
		c-0.161,0.15-0.3,0.225-0.415,0.225c-0.046,0-0.207-0.022-0.484-0.068h-0.138c-0.393,0.276-0.715,0.415-0.968,0.415
		c-0.3,0-0.519,0.046-0.656,0.138c-0.139-0.092-0.353-0.161-0.641-0.207s-0.616-0.161-0.985-0.346
		c-0.392,0.092-0.634,0.138-0.726,0.138c-0.392,0-0.888-0.386-1.486-1.158c-0.6-0.772-0.898-1.527-0.898-2.266
		c0-0.023-0.133-0.202-0.397-0.536c-0.266-0.334-0.398-0.697-0.398-1.09v-0.346l0.069-0.415v-0.657l0.069-0.208
		c0.346-0.046,0.519-0.092,0.519-0.138L541.249,319.401z M548.268,310.235l0.727-0.415c0.092-0.369,0.392-0.813,0.899-1.332
		c0.507-0.519,0.864-0.778,1.072-0.778h0.276c0-0.161,0.035-0.322,0.104-0.484c0.069-0.161,0.104-0.38,0.104-0.657
		c0-0.138,0.311-0.519,0.934-1.141l0.276-0.623c0.208-0.6,0.727-1.095,1.557-1.487c0.323-0.669,0.565-1.003,0.727-1.003l0.276-0.069
		c0.092-0.346,0.277-0.657,0.554-0.934l0.139-0.208v-0.554c0-0.046,0.155-0.235,0.467-0.57c0.312-0.334,0.536-0.646,0.675-0.934
		c0.138-0.288,0.328-0.513,0.57-0.675c0.242-0.161,0.409-0.449,0.502-0.864l0.553-0.069c0-0.3,0.023-0.496,0.069-0.588l0.069-0.347
		c0.115-0.276,0.519-1.003,1.211-2.179l0.553-1.28c0-0.138,0.099-0.305,0.294-0.501c0.196-0.195,0.295-0.479,0.295-0.848
		l0.276-1.142c0-0.53-0.093-0.795-0.276-0.795c-0.231,0.161-0.444,0.276-0.641,0.346s-0.386,0.484-0.57,1.245
		c-0.692,0.161-1.09,0.49-1.193,0.985c-0.104,0.496-0.387,0.917-0.848,1.263l-0.242,0.415c-0.046,0.254-0.266,0.519-0.657,0.796
		c-0.393,0.276-0.761,0.749-1.106,1.418c-1.153,1.591-1.787,2.444-1.902,2.56l-0.346,0.415l-0.52-0.069
		c0.092,0.369,0.139,0.577,0.139,0.623c0,0.138-0.069,0.271-0.208,0.397c-0.138,0.127-0.242,0.283-0.311,0.467
		c-0.069,0.186-0.208,0.398-0.415,0.641c-0.208,0.241-0.398,0.634-0.571,1.176s-0.328,0.859-0.467,0.951l-0.484-0.069
		c-0.3,0.185-0.449,0.369-0.449,0.554l0.104,0.484c0,0.092-0.063,0.202-0.19,0.328c-0.127,0.127-0.248,0.375-0.363,0.744
		s-0.403,0.928-0.864,1.677c-0.462,0.75-0.825,1.546-1.09,2.387c-0.266,0.843-0.524,1.379-0.778,1.608
		c0.046,0.047,0.115,0.069,0.208,0.069C547.702,311.169,547.991,310.857,548.268,310.235z"/>
	<path fill="#333333" d="M561.347,313.521l0.727-0.588c0.553-0.046,0.853-0.334,0.898-0.865c0.046-0.53,0.427-0.991,1.141-1.384
		l0.415-0.588c0.346-0.346,1.29-0.795,2.835-1.349c0.392-0.23,0.657-0.438,0.795-0.623c0.046-0.046,0.092-0.069,0.138-0.069
		l0.554,0.139c0.3,0,0.686-0.08,1.157-0.242c0.473-0.161,0.929-0.242,1.366-0.242l1.451-0.069c0.093,0,0.282,0.069,0.57,0.208
		s0.64,0.207,1.055,0.207c0.507,0,0.974,0.231,1.399,0.692c0.427,0.461,0.641,0.888,0.641,1.279c0,0.716-0.369,1.441-1.104,2.18
		c-0.737,0.738-1.324,1.153-1.762,1.245c-0.391,0.393-0.69,0.64-0.897,0.743c-0.207,0.104-0.42,0.266-0.639,0.484
		c-0.219,0.22-0.397,0.329-0.535,0.329c-0.092,0-0.161-0.029-0.207-0.087c-0.046-0.057-0.115-0.086-0.207-0.086
		c-0.369,0-0.771,0.449-1.208,1.349l-0.622-0.069c-0.391,0.254-0.645,0.531-0.76,0.83c-0.115,0.3-0.356,0.45-0.725,0.45
		c-0.852,0.854-1.428,1.279-1.727,1.279c-0.046,0-0.207-0.046-0.483-0.138c-0.185,0.23-0.276,0.473-0.276,0.726
		c0,0.277-0.184,0.438-0.552,0.484l-0.449,0.415l-0.345-0.069l-0.691,0.727c-0.345,0-0.701,0.116-1.069,0.346
		c-0.047,0.277-0.116,0.629-0.208,1.056c-0.093,0.427-0.139,0.663-0.139,0.709c0,0.669,0.611,1.003,1.834,1.003l1.66-0.242
		c0.438,0,0.848-0.115,1.229-0.346c0.38-0.23,0.789-0.346,1.229-0.346c0.138,0,0.346-0.046,0.622-0.139l0.346,0.139
		c0.161-0.347,0.461-0.657,0.899-0.935c0.438-0.276,0.784-0.415,1.038-0.415l0.347-0.207c0.092-0.277,0.229-0.461,0.415-0.554
		l0.276-0.242c0.185-0.185,0.357-0.276,0.519-0.276h0.484l0.139-0.069c0.276-0.6,0.662-0.951,1.158-1.055
		c0.496-0.104,0.808-0.271,0.935-0.502s0.352-0.368,0.675-0.415c0.322-0.046,0.594-0.201,0.813-0.467
		c0.219-0.265,0.49-0.513,0.813-0.744c0.323-0.229,0.548-0.402,0.675-0.519c0.126-0.115,0.236-0.173,0.328-0.173
		c0.139,0,0.208,0.104,0.208,0.312c0,0.207,0.046,0.312,0.139,0.312c0.092,0,0.138-0.047,0.138-0.139s-0.022-0.208-0.069-0.346
		v-0.242c0-0.346,0.185-0.576,0.554-0.692l1.557-1.003c0.047-0.484,0.179-0.767,0.398-0.848c0.219-0.08,0.386-0.173,0.502-0.276
		c0.114-0.104,0.241-0.155,0.38-0.155c0.3,0,0.45,0.173,0.45,0.519l-0.174,0.899l0.174,0.934c0,0.139-0.11,0.329-0.329,0.571
		c-0.22,0.242-0.387,0.611-0.502,1.106c-0.115,0.496-0.266,0.767-0.45,0.813h-0.208c-0.415,0.438-0.744,0.698-0.986,0.778
		c-0.242,0.081-0.433,0.226-0.571,0.433l-1.177,1.349c-0.231,0.231-0.428,0.438-0.589,0.623c-0.162,0.185-0.289,0.276-0.381,0.276
		l-0.276-0.276c0-0.046-0.047-0.069-0.139-0.069c-0.231,0-0.375,0.139-0.433,0.415s-0.179,0.519-0.364,0.727
		c-0.691,0.323-1.143,0.623-1.35,0.899l-0.208,0.069h-0.623c-0.3,0-0.507,0.225-0.623,0.674c-0.115,0.45-0.444,0.709-0.986,0.778
		s-0.929,0.208-1.159,0.415c-0.047,0.047-0.15,0.093-0.313,0.139c-0.161,0.047-0.484,0.23-0.969,0.554l-2.907,1.037
		c-0.231,0.116-0.382,0.173-0.45,0.173l-0.97,0.139c-0.139,0-0.277-0.092-0.415-0.276c-0.139-0.185-0.231-0.277-0.277-0.277
		l-0.623,0.208c-0.461,0.139-0.9,0.207-1.315,0.207c-0.231,0-0.485-0.08-0.762-0.242c-0.277-0.16-0.496-0.276-0.657-0.346
		c-0.67,0-1.143-0.519-1.419-1.557l-0.416,0.069c-0.093,0-0.403-0.818-0.935-2.456c-0.139-0.184-0.357-0.316-0.657-0.397
		c-0.3-0.08-0.449-0.306-0.449-0.675c0-1.037,0.225-1.734,0.674-2.092c0.45-0.357,0.697-0.628,0.744-0.813l0.483-1.799
		c0.092-0.068,0.208-0.299,0.346-0.691l0.795-1.453C560.817,314.57,561.024,314.167,561.347,313.521z M568.662,311.446l-0.415,0.207
		c-0.093,0.047-0.363,0.248-0.813,0.605c-0.45,0.357-0.889,0.646-1.314,0.864c-0.427,0.22-0.865,0.791-1.314,1.713
		c-0.45,0.922-0.675,1.452-0.675,1.591s0.069,0.207,0.208,0.207l1.176-0.519c0.438-0.207,0.848-0.472,1.228-0.795
		c0.381-0.323,0.929-0.715,1.644-1.177l0.276-0.276c0.046-0.092,0.26-0.26,0.64-0.502c0.381-0.242,0.663-0.478,0.848-0.709
		l0.346-0.138c0.393-0.623,0.79-1.004,1.193-1.142c0.403-0.139,0.605-0.277,0.605-0.415c0-0.277-0.22-0.415-0.657-0.415
		c-0.185,0-0.461,0.115-0.83,0.346h-0.796c-0.092,0-0.346,0.139-0.761,0.415L568.662,311.446z"/>
	<path fill="#333333" d="M585.07,311.1l0.484-0.864c0.139-0.208,0.317-0.421,0.536-0.64c0.22-0.22,0.456-0.784,0.711-1.695
		c0.254-0.91,0.536-1.539,0.848-1.885s0.768-0.52,1.368-0.52c0.346,0,0.802,0.168,1.367,0.502c0.565,0.335,1.119,1.344,1.662,3.026
		c0.542,1.684,0.813,2.871,0.813,3.563c0,0.277,0.081,0.629,0.242,1.056s0.266,0.755,0.312,0.985
		c-0.185,0.393-0.276,0.611-0.276,0.657l0.069,1.418l-0.415,1.142v0.83c-0.277,0.462-0.415,0.75-0.415,0.865
		c0,0.138,0.046,0.276,0.138,0.415c1.083-0.461,1.739-0.836,1.97-1.124s0.455-0.468,0.674-0.536
		c0.218-0.069,0.581-0.369,1.088-0.899l0.656-0.346c0.229-0.277,0.426-0.524,0.587-0.744c0.161-0.219,0.351-0.375,0.569-0.467
		s0.478-0.254,0.776-0.484c0.3-0.23,0.737-0.496,1.313-0.796l0.345-0.415c0.345-0.392,0.754-0.703,1.226-0.934
		s0.731-0.346,0.777-0.346c0.161,0,0.328,0.213,0.501,0.64c0.172,0.427,0.259,0.848,0.259,1.263c0,0.393-0.225,0.778-0.674,1.158
		c-0.45,0.381-0.756,0.663-0.916,0.848c-0.161,0.185-0.53,0.346-1.105,0.484c-0.047,0.023-0.427,0.496-1.141,1.418l-0.691,0.415
		l-0.345,0.45c-0.047,0.092-0.357,0.185-0.934,0.276c-0.022,0-0.075,0.116-0.155,0.346c-0.081,0.231-0.329,0.393-0.743,0.484
		c-0.829,0.761-1.256,1.188-1.278,1.28l-0.726,0.138c-0.139,0.438-0.254,0.704-0.346,0.796c-0.553,0.139-0.864,0.369-0.934,0.691
		c-0.068,0.047-0.184,0.093-0.345,0.139l-0.139,0.104c-0.529,0.415-1.048,0.669-1.555,0.762l-0.795,0.207l-0.276,0.415
		c0,0.116-0.282,0.266-0.847,0.45s-0.985,0.415-1.261,0.691l-0.588,0.449c-0.715,0.277-1.163,0.531-1.348,0.762h-0.483
		c-0.323,0-0.83,0.236-1.521,0.709c-0.691,0.473-1.244,0.709-1.659,0.709c-1.336,0-2.252-0.167-2.747-0.502
		c-0.494-0.334-0.903-0.749-1.227-1.245c-0.321-0.495-0.615-0.894-0.881-1.193c-0.265-0.299-0.397-0.541-0.397-0.727
		c0-0.161,0.109-0.322,0.328-0.484c0.22-0.16,0.456-0.489,0.709-0.985c0.253-0.495,0.898-0.813,1.935-0.951
		c0.046,0,0.213-0.069,0.501-0.208c0.288-0.138,0.524-0.207,0.708-0.207c0.23,0,0.519,0.207,0.864,0.623
		c0,0.046,0.046,0.068,0.139,0.068l0.553-0.068c0.253,0.185,0.426,0.276,0.519,0.276c0.552,0,1.14-0.276,1.763-0.83l0.138-0.069
		h0.276c0.069,0,0.185-0.195,0.346-0.588l0.587-1.211l1.21-1.557v-0.346c0-0.069,0.069-0.276,0.207-0.622v-0.52
		c0-0.207,0.139-0.34,0.415-0.397s0.414-0.202,0.414-0.433l-0.068-0.276c-0.185-0.254-0.276-0.45-0.276-0.588l0.345-0.692
		l-0.068-0.727l0.138-0.276c-0.092-0.322-0.138-0.507-0.138-0.554l0.138-0.864c0-0.022-0.063-0.242-0.19-0.657
		s-0.225-0.623-0.294-0.623c-0.139,0-0.577,0.358-1.316,1.072c-0.738,0.716-1.178,1.223-1.315,1.522
		c-0.139,0.3-0.434,0.57-0.884,0.813s-0.756,0.514-0.917,0.813c-0.162,0.3-0.358,0.473-0.589,0.519l-2.321,1.868l-2.527,1.867
		c-0.185,0.208-0.3,0.312-0.347,0.312c-0.854,0-1.281-0.473-1.281-1.418c0-0.3,0.174-0.842,0.52-1.626
		c0.161-0.092,0.282-0.161,0.363-0.207c0.081-0.047,0.121-0.081,0.121-0.104c0-0.022-0.022-0.034-0.068-0.034l0.207,0.139h0.069
		c0.854-0.576,1.408-0.911,1.662-1.004c0.254-0.092,0.484-0.346,0.692-0.761l1.454-1.037c0.369-0.277,0.935-0.784,1.697-1.522
		C584.377,311.988,584.862,311.446,585.07,311.1z"/>
</g>
<g>
	<path fill="#333333" d="M262.933,268.812c-1.004,0-1.974-0.547-2.466-1.498c-0.704-1.363-0.168-3.032,1.191-3.735l7.177-3.706
		c0.808-0.415,1.763-0.41,2.565,0.008l5.746,3.032l5.887-3.04c0.807-0.415,1.768-0.412,2.565,0.008l5.745,3.032l5.894-3.04
		c0.802-0.415,1.762-0.41,2.56,0.008l5.749,3.032l5.888-3.04c0.807-0.415,1.762-0.412,2.565,0.008l5.739,3.032l5.893-3.04
		c0.809-0.415,1.762-0.41,2.565,0.008l5.745,3.032l5.887-3.04c0.809-0.415,1.768-0.412,2.565,0.008l5.746,3.032l5.891-3.04
		c0.803-0.415,1.763-0.41,2.56,0.008l5.751,3.032l5.888-3.04c0.807-0.415,1.767-0.412,2.565,0.008l5.745,3.032l5.894-3.04
		c0.802-0.415,1.757-0.41,2.56,0.008l5.743,3.032l5.894-3.04c0.802-0.415,1.762-0.412,2.56,0.008l5.744,3.032l5.893-3.04
		c0.804-0.415,1.763-0.41,2.565,0.008l5.745,3.032l5.886-3.04c0.809-0.415,1.77-0.412,2.567,0.008l5.744,3.032l5.894-3.04
		c0.801-0.415,1.762-0.41,2.56,0.008l5.749,3.032l5.889-3.04c0.806-0.415,1.768-0.412,2.565,0.008l5.737,3.032l5.902-3.04
		c0.801-0.415,1.754-0.41,2.558,0.008l5.743,3.032l5.896-3.04c0.803-0.415,1.76-0.412,2.558,0.008l5.745,3.032l5.895-3.04
		c0.803-0.415,1.76-0.41,2.563,0.008l5.746,3.032l5.889-3.04c0.809-0.415,1.765-0.412,2.563,0.008l7.021,3.704
		c1.358,0.716,1.876,2.393,1.163,3.743c-0.714,1.355-2.394,1.873-3.741,1.159l-5.748-3.027l-5.892,3.038
		c-0.804,0.42-1.76,0.412-2.558-0.011l-5.754-3.027l-5.891,3.038c-0.804,0.42-1.763,0.412-2.558-0.011l-5.749-3.027l-5.891,3.038
		c-0.804,0.42-1.76,0.412-2.561-0.011l-5.746-3.027l-5.891,3.038c-0.804,0.42-1.766,0.412-2.565-0.011l-5.746-3.027l-5.886,3.038
		c-0.804,0.42-1.766,0.412-2.563-0.011l-5.749-3.027l-5.892,3.038c-0.803,0.42-1.765,0.412-2.563-0.011l-5.743-3.027l-5.886,3.038
		c-0.809,0.42-1.765,0.412-2.566-0.011l-5.746-3.027l-5.893,3.038c-0.802,0.42-1.768,0.412-2.564-0.011l-5.746-3.027l-5.889,3.038
		c-0.802,0.42-1.762,0.412-2.564-0.011l-5.745-3.027l-5.894,3.038c-0.802,0.42-1.762,0.412-2.564-0.011l-5.741-3.027l-5.893,3.038
		c-0.803,0.42-1.757,0.412-2.56-0.011l-5.75-3.027l-5.893,3.038c-0.803,0.42-1.762,0.412-2.56-0.011l-5.746-3.027l-5.886,3.038
		c-0.808,0.42-1.763,0.412-2.565-0.011l-5.746-3.027l-5.893,3.038c-0.802,0.42-1.762,0.412-2.564-0.011l-5.746-3.027l-5.889,3.038
		c-0.802,0.42-1.762,0.412-2.563-0.011l-5.745-3.027l-5.894,3.038c-0.802,0.42-1.762,0.412-2.56-0.011l-5.745-3.027l-5.893,3.038
		c-0.803,0.42-1.757,0.412-2.56-0.011l-5.75-3.027l-5.893,3.044C263.794,268.709,263.355,268.812,262.933,268.812z"/>
</g>
</svg>
